<?xml version="1.0" encoding="utf-8"?>
<!-- Generator: Adobe Illustrator 16.0.0, SVG Export Plug-In . SVG Version: 6.00 Build 0)  -->
<!DOCTYPE svg PUBLIC "-//W3C//DTD SVG 1.0//EN" "http://www.w3.org/TR/2001/REC-SVG-20010904/DTD/svg10.dtd">
<svg version="1.0" id="Layer_1" xmlns="http://www.w3.org/2000/svg" xmlns:xlink="http://www.w3.org/1999/xlink" x="0px" y="0px"
	 width="434.52px" height="445.038px" viewBox="0 0 434.52 445.038" enable-background="new 0 0 434.52 445.038"
	 xml:space="preserve">
<g>
	<path fill-rule="evenodd" clip-rule="evenodd" fill="#79618F" d="M434.289,216.009c0.859,3.933-0.752,6.807-3.482,9.586
		c-11.262,11.461-22.545,22.909-33.463,34.693c-6.292,6.792-12.574,13.59-19.142,20.108c-2.101,2.084-1.839,4.395-1.84,6.799
		c-0.012,27.631-0.001,55.262,0.004,82.893c0,2.46,0.049,4.922-0.024,7.381c-0.17,5.844-2.883,8.639-8.721,8.771
		c-5.297,0.121-10.598,0.028-15.896,0.027c-23.09-0.003-46.178,0.062-69.267-0.079c-3.506-0.021-5.906,0.996-8.366,3.569
		c-16.342,17.102-32.851,34.043-49.367,50.975c-5.564,5.703-9.241,5.776-14.86,0.008c-16.502-16.944-32.936-33.958-49.224-51.109
		c-2.312-2.435-4.548-3.425-7.825-3.413c-27.25,0.103-54.504,0.063-81.757,0.065c-1.514,0-3.035,0.085-4.54-0.03
		c-4.7-0.359-7.601-3.219-8.011-7.963c-0.162-1.879-0.054-3.782-0.053-5.675c0.008-28.01-0.053-56.02,0.108-84.028
		c0.024-4.072-1.07-7.054-3.952-10.007c-15.852-16.257-31.5-32.709-47.22-49.095c-1.048-1.092-2.121-2.161-3.145-3.275
		c-5.676-6.174-5.704-9.59,0.172-15.444c9.246-9.214,18.59-18.327,27.895-27.481c7.549-7.428,15.039-14.918,22.686-22.244
		c2.495-2.391,3.531-4.909,3.51-8.445c-0.16-27.63-0.105-55.263-0.116-82.894c-0.001-1.514-0.076-3.032,0.021-4.541
		c0.331-5.155,3.069-7.799,8.33-8.071c1.321-0.069,2.649-0.021,3.974-0.021c27.631-0.001,55.262-0.058,82.892,0.068
		c3.665,0.016,6.288-0.967,8.883-3.676c15.307-15.991,30.809-31.797,46.248-47.66c1.188-1.221,2.339-2.488,3.629-3.592
		c3.288-2.813,6.383-3.001,9.669-0.209c2.871,2.439,5.459,5.221,8.102,7.92c14.956,15.271,29.922,30.532,44.775,45.902
		c1.323,1.369,2.653,1.211,4.077,1.221c7.003,0.043,14.004-0.007,21.007-0.005c21.954,0.005,43.906-0.004,65.86,0.039
		c7.743,0.015,10.476,2.792,10.48,10.612c0.019,28.01,0.079,56.019-0.088,84.028c-0.025,4.107,1.087,7.057,4.067,9.938
		c16.131,15.59,32.061,31.39,48.095,47.082c2.028,1.984,3.891,4.083,5.529,6.39C433.943,215.467,434.057,215.761,434.289,216.009z
		 M74.251,220.269c0.012,0,0.022,0,0.033,0c0,14.761,0.476,29.544-0.18,44.276c-0.389,8.752,1.159,15.934,8.593,21.15
		c0.605,0.425,1.025,1.107,1.548,1.655c25.632,26.801,51.284,53.584,76.862,80.437c1.858,1.951,3.77,2.718,6.433,2.713
		c33.308-0.068,66.616-0.06,99.925,0c2.443,0.004,4.291-0.611,5.947-2.489c3.001-3.402,6.214-6.62,9.352-9.903
		c24.841-25.989,49.664-51.995,74.561-77.931c2.22-2.313,3.369-4.622,3.36-7.947c-0.104-34.443-0.101-68.888,0.023-103.331
		c0.014-3.7-1.142-6.312-3.748-8.913c-27.859-27.798-55.649-55.669-83.319-83.654c-2.643-2.67-5.254-3.666-8.913-3.652
		c-31.225,0.111-62.453,0.162-93.677-0.053c-4.4-0.031-7.456,1.398-10.377,4.364c-15.653,15.896-31.357,31.744-47.112,47.54
		c-11.621,11.652-23.296,23.252-35.061,34.76c-3.022,2.956-4.43,6.051-4.358,10.449C74.414,186.578,74.251,203.424,74.251,220.269z
		 M360.618,300.861c-0.376-0.146-0.752-0.291-1.127-0.438c-21.94,22.995-43.88,45.991-66.782,69.994c5.594,0,9.85,0,14.107,0
		c16.44-0.001,32.882,0.02,49.321-0.019c4.302-0.01,4.349-0.093,4.398-4.377c0.07-6.047,0.075-12.095,0.077-18.143
		C360.623,332.208,360.618,316.534,360.618,300.861z M141.149,369.501c-22.155-23.072-44.043-45.869-66.817-69.585
		c0,2.54-0.001,3.798,0,5.054c0.01,20.017,0.012,40.033,0.037,60.052c0.006,5.365,0.038,5.403,5.671,5.406
		c18.885,0.01,37.769,0,56.652-0.042C137.942,370.384,139.287,370.8,141.149,369.501z M74.287,139.925
		c0.353,0.229,0.705,0.458,1.058,0.688c22.297-22.212,44.87-44.149,66.735-66.766c-1.121-1.175-1.901-1.011-2.614-1.011
		c-20.394-0.02-40.789-0.043-61.184-0.016c-3.878,0.007-3.972,0.105-3.979,4.226C74.269,98.006,74.287,118.966,74.287,139.925z
		 M292.176,72.771c23.27,23.089,45.578,45.225,67.95,67.423c0.685-0.314,0.433-1.167,0.435-1.839
		c0.029-20.588-0.013-41.178,0.091-61.766c0.015-2.948-0.959-3.898-3.894-3.868c-12.656,0.124-25.312,0.051-37.968,0.05
		C310.32,72.771,301.849,72.771,292.176,72.771z M58.287,179.373c-13.129,13.074-25.253,25.206-37.465,37.25
		c-2.041,2.014-0.826,3.15,0.556,4.601c11.483,12.037,22.933,24.107,34.413,36.148c0.59,0.62,1.129,1.586,2.496,0.988
		C58.287,232.573,58.287,206.715,58.287,179.373z M376.652,179.567c0,27.195,0,53.337,0,80.468
		c13.516-14.16,26.385-27.641,39.015-40.871C402.771,206.077,390.048,193.163,376.652,179.567z M180.585,386.397
		c-0.174,1.446,0.502,1.887,0.995,2.396c10.914,11.25,21.825,22.506,32.77,33.727c2.954,3.029,3.058,3.031,6.102-0.069
		c10.584-10.784,21.143-21.592,31.663-32.438c0.952-0.981,2.592-1.636,2.347-3.614C229.858,386.397,205.312,386.397,180.585,386.397
		z M180.634,57.002c25.247-0.136,49.064,0.249,73.734-0.23c-12.077-12.293-23.411-23.685-34.536-35.274
		c-2.25-2.344-3.477-1.909-5.336,0.178c-2.64,2.963-5.531,5.699-8.281,8.567C198.003,38.816,189.806,47.406,180.634,57.002z"/>
	<path fill-rule="evenodd" clip-rule="evenodd" fill="#79618F" d="M406.93,119.433c5.217,0.03,9.876,4.491,9.963,9.541
		c0.092,5.26-4.666,9.633-10.478,9.628c-4.909-0.003-9.772-4.852-9.652-9.622C396.911,123.181,400.939,119.398,406.93,119.433z"/>
	<path fill-rule="evenodd" clip-rule="evenodd" fill="#79618F" d="M138.594,418.419c-0.002,5.065-4.25,9.402-9.277,9.475
		c-5.319,0.075-9.688-4.184-9.796-9.552c-0.109-5.458,4.065-9.747,9.464-9.723C134.253,408.642,138.596,413.071,138.594,418.419z"/>
	<path fill-rule="evenodd" clip-rule="evenodd" fill="#79618F" d="M27.833,138.562c-5.485-0.043-9.544-4.23-9.483-9.781
		c0.063-5.628,4.05-9.453,9.757-9.355c5.494,0.091,9.414,4.297,9.292,9.965C37.291,134.42,32.928,138.603,27.833,138.562z"/>
	<path fill-rule="evenodd" clip-rule="evenodd" fill="#79618F" d="M406.875,320.123c-6.645-0.281-9.514-3.585-9.184-10.574
		c0.29-6.087,3.546-8.912,9.95-8.631c4.709,0.206,9.049,4.94,9.002,9.817C416.597,315.494,411.576,320.321,406.875,320.123z"/>
	<path fill-rule="evenodd" clip-rule="evenodd" fill="#79618F" d="M309.083,409.089c1.767,0.797,3.099,2.164,4.292,3.6
		c2.5,2.999,2.374,8.34-0.126,11.587c-2.514,3.264-8.002,4.645-11.607,2.92c-3.947-1.888-6.502-7.6-4.833-11.988
		c0.999-2.628,1.797-5.974,5.685-6.172C304.689,409.053,306.886,409.07,309.083,409.089z"/>
	<path fill-rule="evenodd" clip-rule="evenodd" fill="#79618F" d="M28.096,300.798c5.316,0.067,9.542,4.569,9.328,9.937
		c-0.211,5.26-4.268,9.163-9.516,9.157c-5.465-0.008-9.615-4.215-9.542-9.675C18.441,304.652,22.494,300.728,28.096,300.798z"/>
	<path fill-rule="evenodd" clip-rule="evenodd" fill="#79618F" d="M296.118,26.161c0.019-6.196,2.896-9.012,9.169-8.968
		c5.46,0.038,9.497,3.774,9.619,8.9c0.127,5.392-3.933,9.163-9.493,9.487C300.188,35.886,296.06,33.244,296.118,26.161z"/>
	<path fill-rule="evenodd" clip-rule="evenodd" fill="#79618F" d="M129.651,35.515c-5.567,0.048-9.317-3.556-9.412-9.05
		c-0.089-5.117,4.136-9.25,9.406-9.204c5.029,0.045,9.088,3.972,9.189,8.876C138.935,31.021,134.579,36.216,129.651,35.515z"/>
	<path fill-rule="evenodd" clip-rule="evenodd" fill="#79618F" d="M170.167,276.831c-7.839,6.291-14.469,13.847-21.712,20.757
		c-1.411,1.347-2.551,3.176-6.244,3.697c8.221-10.778,16.842-19.576,25.106-28.857c-1.894-1.502-2.843-0.459-4.025,0.511
		c-13.606,11.151-27.228,22.286-40.936,33.312c-1.407,1.131-3.232,4.106-5.013,2.007c-2.048-2.411,1.375-3.783,2.804-5.058
		c11.02-9.809,22.188-19.451,33.299-29.157c1.829-1.598,3.603-3.261,5.533-5.013c-1.853-1.986-3.148-0.709-4.487,0.132
		c-7.362,4.614-14.721,9.239-22.107,13.814c-1.04,0.645-1.997,1.791-3.856,1.025c1.216-3.52,4.684-4.61,7.074-6.697
		c2.413-2.106,5.159-3.831,7.74-5.746c2.712-2.014,5.401-4.057,8.15-6.126c-1.897-2.886-3.764-1.309-5.54-0.432
		c-10.338,5.101-20.662,10.233-30.997,15.343c-3.388,1.674-6.785,3.331-10.2,4.949c-1.001,0.475-2.244,1.154-3.055-0.093
		c-1.014-1.562,0.24-2.461,1.426-3.104c7.973-4.32,15.986-8.565,23.952-12.901c5.08-2.765,10.099-5.642,15.324-8.57
		c-1.183-1.98-2.394-2.509-4.287-1.734c-3.496,1.433-7.039,2.754-10.577,4.077c-1.89,0.707-3.713,1.768-6.978,1.534
		c4.894-4.116,10.378-5.186,14.955-8.34c-1.403-2.967-3.42-2.629-5.963-1.789c-8.248,2.725-16.558,5.268-24.859,7.828
		c-2.525,0.779-5.109,1.368-7.653,2.092c-0.857,0.244-1.519,0.018-1.91-0.696c-0.57-1.042-0.065-1.831,0.892-2.282
		c1.536-0.724,3.083-1.447,4.681-2.011c6.942-2.451,13.908-4.835,20.857-7.268c1.952-0.684,3.993-1.188,5.688-2.521
		c-2.354-5.089-6.969-1.903-11.437-2.89c2.028-1.228,3.346-2.023,4.657-2.817c-2.13-3.743-5.259-4.621-9.186-3.998
		c-4.478,0.708-8.999,1.159-13.499,1.729c-0.937,0.121-1.876,0.421-2.804,0.382c-1.371-0.057-3.421,1.014-3.862-1.066
		c-0.451-2.125,1.646-2.08,3.062-2.373c1.665-0.345,3.337-0.657,5.015-0.931c3.882-0.633,7.771-1.233,12.578-1.993
		c-2.93-3.335-5.374-6.045-7.734-8.824c-2.562-3.02-5.429-5.885-6.04-10.065c-0.216-1.479-1.18-1.736-2.401-1.791
		c-1.318-0.058-2.643-0.105-3.949-0.279c-0.81-0.107-1.437-0.774-1.396-1.535c0.04-0.741,0.682-1.412,1.491-1.483
		c1.69-0.147,3.417-0.378,5.083-0.184c2.961,0.344,4.904-0.867,6.802-3.058c4.305-4.969,8.877-9.706,13.695-14.921
		c-7.17-2.001-13.898-3.794-20.563-5.797c-1.7-0.511-5.076-0.057-4.179-3.104c0.77-2.616,3.339-0.527,4.931-0.245
		c6.319,1.12,12.599,2.479,18.854,3.926c5.974,1.38,5.952,1.476,10.753-3.395c-2.537-2.627-7.05-2.156-9.582-5.887
		c3.908-0.588,7.04,0.871,9.519,2.295c2.686,1.545,4.218,1.255,6.17-0.521c0.684-0.619,1.488-1.105,2.569-1.895
		c-4.378-3.441-9.329-5.315-13.865-7.86c-5.601-3.142-11.378-5.966-17.072-8.942c-1.001-0.523-2.022-1.044-2.924-1.715
		c-0.656-0.489-0.769-1.342-0.278-2.019c0.425-0.586,1.018-1.174,1.894-0.806c0.87,0.363,1.71,0.799,2.576,1.176
		c10.74,4.683,21.375,9.605,31.746,15.05c3.065,1.608,5.239,1.414,7.684-1.396c-5.198-4.919-12.063-7.746-16.6-13.419
		c5.49,2.405,11.11,4.386,15.664,8.361c2.891,2.526,4.699,2.774,9.087,1.105c-2.646-2.39-5.056-4.664-7.569-6.816
		c-8.043-6.89-16.128-13.729-24.189-20.598c-1.583-1.349-3.136-2.734-4.688-4.119c-0.596-0.531-1.012-1.19-0.543-1.979
		c0.583-0.98,1.515-1.146,2.413-0.55c1.572,1.044,3.091,2.175,4.586,3.328c11.287,8.699,22.579,17.392,33.822,26.145
		c1.605,1.25,3.003,2.359,5.173-0.068c-6.725-7.508-14.196-14.518-20.538-22.784c2.411-1.087,3.084,0.449,3.938,1.238
		c5.83,5.394,11.595,10.857,17.373,16.308c0.964,0.908,1.885,1.861,2.833,2.786c0.859,0.836,1.818,1.524,2.938,0.515
		c1.359-1.229-0.059-1.994-0.655-2.787c-9.215-12.236-18.458-24.453-27.689-36.678c-1.139-1.508-2.24-3.045-3.38-4.553
		c-0.715-0.942-1.436-1.928-0.159-2.884c1.245-0.935,2.11,0.025,2.84,0.886c4.645,5.484,9.298,10.962,13.883,16.497
		c6.513,7.864,12.933,15.805,19.481,23.638c1.118,1.339,1.813,3.491,4.76,3.145c-1.084-4.073-3.839-7.135-5.613-10.654
		c-1.785-3.536-3.883-6.915-5.769-10.402c-1.928-3.567-4.435-6.872-5.047-11.15c8.165,9.549,14.633,20.318,21.941,30.467
		c1.995-1.479,0.752-2.46,0.361-3.322c-6.683-14.81-13.427-29.593-20.134-44.393c-1.014-2.237-1.926-4.521-2.868-6.792
		c-0.494-1.189-1.444-2.65,0.378-3.343c1.677-0.636,2.182,1.03,2.757,2.159c7.021,13.819,14.013,27.653,21.033,41.473
		c2.099,4.13,4.264,8.229,7.031,12.09c-3.603-13.063-7.38-25.994-10.467-39.163c3.38,2.747,4.053,6.846,5.677,10.417
		c1.64,3.608,3.032,7.331,4.521,11.008c1.56,3.854,3.106,7.715,4.66,11.571c0.465,1.947,0.293,4.236,3.354,5.783
		c-0.548-2.468-0.934-4.197-1.316-5.927c-3.547-17.983-7.118-35.962-10.604-53.956c-0.325-1.68-1.774-4.369,0.604-4.906
		c2.419-0.545,2.152,2.523,2.568,4.15c3.315,13.003,6.521,26.031,9.766,39.051c0.914,3.666,1.85,7.325,2.765,10.989
		c0.413,1.649,0.569,3.414,1.278,4.922c0.623,1.328-1.776,4.047,1.068,3.823c1.91-0.148,0.833-2.868,0.744-4.397
		c-0.592-10.196-1.332-20.384-1.948-30.578c-0.135-2.229-0.582-4.488,0.048-6.714c1.789-0.211,1.74,1.121,1.904,2.196
		c1.859,12.146,3.7,24.297,5.554,36.446c0.138,0.901-0.039,1.9,0.908,2.889c1.158-1.276,0.813-2.752,0.837-4.089
		c0.355-18.731,0.678-37.463,1.041-56.195c0.032-1.689,0.236-3.384,0.486-5.058c0.08-0.534,0.66-0.824,1.289-0.848
		c0.657-0.024,1.196,0.329,1.316,0.831c0.309,1.275,0.553,2.592,0.61,3.901c0.181,4.16,0.285,8.322,0.385,12.484
		c0.371,15.7,0.728,31.4,1.105,47.102c0.014,0.554,0.182,1.105,0.659,1.722c2.85-13.862,4.126-28.023,7.859-41.779
		c1.263,4.565,0.593,9.144,0.425,13.682c-0.174,4.724-0.862,9.432-0.919,14.153c-0.059,4.718-1.685,9.312-1.094,14.232
		c1.987-0.57,1.859-2.202,2.176-3.519c4.241-17.64,8.451-35.288,12.717-52.924c0.484-2.004,1.214-3.954,1.931-5.892
		c0.191-0.521,0.83-0.646,1.441-0.577c0.74,0.085,0.984,0.697,0.953,1.184c-0.106,1.69-0.257,3.392-0.573,5.055
		c-3.327,17.455-6.693,34.904-10.04,52.357c-0.349,1.818-1.141,3.614-0.101,6.38c5.19-13.344,10.13-26.046,15.07-38.748
		c1.954,2.134,1.207,3.985,0.66,5.831c-2.96,9.963-5.92,19.924-8.9,29.879c-0.323,1.084-0.695,2.134-0.397,3.299
		c1.91-0.121,1.885-1.719,2.408-2.775c8.07-16.255,16.106-32.526,24.151-48.795c0.503-1.018,1.026-2.025,1.487-3.063
		c0.523-1.183,1.325-1.963,2.605-1.282c0.963,0.511,0.911,1.468,0.478,2.457c-0.76,1.728-1.367,3.521-2.122,5.251
		c-6.95,15.941-13.923,31.871-20.863,47.815c-0.205,0.469-0.146,1.052-0.389,3.041c5.175-5.532,7.789-11.294,11.428-16.295
		c3.716-5.102,6.656-10.798,11.565-15.096c-4.199,11.317-11.073,21.276-16.275,32.648c2.814-0.1,3.671-1.918,4.767-3.266
		c10.369-12.754,20.703-25.536,31.05-38.309c0.237-0.294,0.486-0.581,0.75-0.854c0.997-1.029,1.909-2.986,3.589-1.625
		c1.725,1.398-0.146,2.737-0.925,3.802c-9.267,12.668-18.603,25.287-27.925,37.915c-0.562,0.761-1.217,1.457-1.729,2.249
		c-0.549,0.846-1.964,1.722-0.533,2.793c1.208,0.903,2.087-0.274,2.861-1.007c5.628-5.319,11.185-10.713,16.848-15.992
		c1.82-1.698,3.386-3.861,7.104-5.032c-2.534,5.728-6.711,8.764-9.824,12.567c-3.211,3.922-6.691,7.62-10.117,11.487
		c1.726,1.817,2.903,1.011,4.132,0.055c5.369-4.188,10.746-8.366,16.141-12.521c6.292-4.844,12.587-9.682,18.92-14.471
		c1.347-1.018,2.825-1.875,4.316-2.668c0.376-0.199,1.158-0.023,1.541,0.263c0.741,0.559,0.525,1.474,0.006,1.97
		c-2.328,2.215-4.692,4.398-7.143,6.477c-8.652,7.343-17.382,14.594-25.973,22.006c-1.064,0.919-3.727,1.819-2.125,3.813
		c1.314,1.637,3.357,0.767,5.107-0.3c5.313-3.242,10.701-6.367,16.068-9.523c0.626-0.369,1.288-0.906,2.295,0.215
		c-1.569,3.255-5.088,4.425-7.785,6.471c-2.85,2.16-5.791,4.199-8.733,6.321c1.845,3.072,3.834,3.131,6.727,1.712
		c9.672-4.743,19.483-9.199,29.244-13.759c1.371-0.641,2.743-1.276,4.138-1.86c1.198-0.5,2.601-1.316,3.351,0.479
		c0.723,1.73-0.808,2.271-1.952,2.868c-8.204,4.295-16.438,8.533-24.619,12.871c-2.448,1.299-5.12,2.291-7.207,4.208
		c2.496,3.421,5.259,3.843,8.962,2.572c2.718-0.932,5.391-2.685,9.116-2.361c-2.574,4.059-7.346,3.598-10.081,6.382
		c3.138,3.683,6.716,4.204,11.152,3.066c6.397-1.641,12.934-2.761,19.44-3.938c1.451-0.263,3.699-1.907,4.396,0.553
		c0.728,2.563-2.094,2.271-3.445,2.609c-6.234,1.57-12.212,4.054-18.57,5.167c-0.668,0.116-1.262,0.662-1.996,1.068
		c0.983,2.608,3.265,3.85,4.838,5.67c1.976,2.288,4.449,4.201,6.155,6.66c2.842,4.1,6.257,6.345,11.381,5.355
		c0.713-0.137,1.506,0.039,2.245,0.162c0.809,0.138,1.404,0.679,1.479,1.481c0.076,0.813-0.529,1.737-1.21,1.627
		c-5.782-0.933-6.621,3.689-8.763,7.236c-1.835,3.04-4.494,5.586-6.813,8.329c-1.321,1.564-3.12,2.778-3.66,5.189
		c3.507,1.527,7.321,1.51,10.968,2.219c2.41,0.47,4.853,0.78,7.271,1.211c1.02,0.182,1.818,0.879,1.727,1.894
		c-0.099,1.076-1.066,1.504-2.111,1.393c-4.7-0.5-9.397-1.027-14.096-1.561c-1.503-0.171-3.025-0.271-4.495-0.603
		c-3.766-0.846-6.712,0.159-8.744,3.788c0.267,1.66,2.592,0.979,3.224,2.489c-0.175,0.779-0.879,1.003-1.631,0.904
		c-3.425-0.448-6.799-0.823-8.999,3.116c9.473,3.315,18.837,6.54,28.153,9.896c1.776,0.64,5.14,0.651,4.443,3.204
		c-0.806,2.957-3.668,0.713-5.32,0.263c-9.656-2.632-19.226-5.585-28.835-8.396c-2.103-0.615-4.281-1.587-6.711,0.654
		c4.343,3.543,9.775,4.727,13.854,8.207c-7.127,0.483-12.8-6.065-21.426-4.344c4.779,3.854,9.158,5.979,13.494,7.954
		c4.362,1.989,7.953,5.198,12.535,6.885c4.393,1.618,8.426,4.245,12.539,6.568c1.506,0.851,4.36,1.513,3.244,3.769
		c-1.236,2.5-3.312,0.203-4.787-0.5c-12.973-6.174-25.924-12.394-38.803-18.755c-2.686-1.325-5.061-2.264-7.643,0.049
		c8.467,5.399,16.483,11.375,24.463,17.538c-1.649,1.862-2.525,0.706-3.376,0.188c-7.263-4.433-14.514-8.882-21.739-13.375
		c-1.924-1.196-3.744-2.562-6.469-1.057c5.704,4.807,11.354,9.488,16.914,14.274c7.6,6.542,15.132,13.164,22.69,19.754
		c0.569,0.497,1.188,0.962,1.662,1.542c0.911,1.112,2.663,2.315,1.254,3.811c-1.508,1.601-2.714-0.376-3.739-1.185
		c-12.48-9.837-24.889-19.765-37.348-29.626c-2.559-2.023-5.255-3.87-8.339-5.298c7.55,9.775,16.247,18.475,23.895,28.067
		c-1.944,1.657-2.781,0.128-3.611-0.658c-6.734-6.364-13.413-12.787-20.101-19.2c-1.087-1.04-2.023-2.291-3.952-2.441
		c-0.546,2.871,1.821,4.373,3.146,6.17c9.201,12.488,18.542,24.876,27.823,37.307c0.902,1.21,1.724,2.482,2.553,3.746
		c0.347,0.529,0.213,1.095-0.155,1.557c-0.563,0.706-1.439,0.782-2.004,0.279c-1.122-0.996-2.116-2.148-3.073-3.31
		c-11.911-14.453-23.885-28.856-35.26-43.74c-0.443-0.582-0.908-1.239-2.188-1.268c-0.959,1.873,0.4,3.153,1.271,4.657
		c5.47,9.452,10.877,18.941,16.264,28.442c0.606,1.071,1.505,2.128,1.228,4.11c-3.829-2.095-4.868-5.905-7.076-8.678
		c-2.231-2.799-4.019-5.953-5.986-8.961c-2.068-3.161-4.099-6.349-6.185-9.498c-1.933-2.919-3.918-5.803-6.801-8.239
		c1.27,3.034,2.48,6.097,3.818,9.101c7.006,15.713,14.076,31.398,21.017,47.14c0.681,1.542,2.895,3.771,0.728,4.968
		c-2.749,1.517-3.134-1.788-4.001-3.409c-8.914-16.68-16.857-33.844-25.158-50.83c-0.655-1.342-1.349-2.664-3.044-3.668
		c3.94,13.68,7.88,27.361,11.823,41.054c-2.271,0.611-2.363-0.767-2.732-1.735c-4.045-10.595-8.045-21.206-12.123-31.786
		c-0.657-1.702-0.714-3.754-2.488-4.903c-0.04-0.526-0.028-1.062-0.137-1.572c-0.075-0.355,0.273-1.041-0.513-0.952
		c-0.138,0.016-0.314,0.583-0.298,0.886c0.038,0.689,0.136,1.404,1.023,1.566c-0.548,6.146,1.591,11.912,2.687,17.799
		c2.522,13.546,5.451,27.018,8.163,40.527c0.369,1.84,0.468,3.736,0.64,5.61c0.057,0.623-0.387,1.018-0.929,1.258
		c-0.86,0.382-1.646-0.061-1.915-0.705c-0.651-1.554-1.163-3.184-1.556-4.825c-4.656-19.46-9.285-38.927-13.905-58.396
		c-0.214-0.898-0.157-1.901-1.22-2.342c0-0.895,0-1.789,0-3.043c-1.207,1.375-1.08,2.243,0.088,2.973
		c-0.527,4.913,0.145,9.791,0.446,14.678c0.573,9.244,1.168,18.486,1.721,27.73c0.051,0.832-0.139,1.678-0.774,2.537
		c-4.116-15.542-5.529-31.473-7.583-47.963c-1.222,2.3-0.977,4.034-1.007,5.706c-0.355,20.415-0.644,40.832-1.065,61.245
		c-0.043,2.069,1.017,5.771-1.654,5.789c-3.184,0.02-2.094-3.817-2.146-5.977c-0.466-19.09-0.765-38.184-1.094-57.278
		c-0.052-2.981-0.008-5.964-0.604-8.966c-2.318,15.897-4.447,31.749-7.781,47.457c-1.886-7.171-0.015-14.294,0.028-21.412
		c0.043-7.268,1.717-14.482,0.848-21.844c-2.226,4.804-3.054,9.979-4.266,15.027c-3.616,15.053-7.031,30.152-10.701,45.191
		c-0.407,1.665,0.114,5.094-2.927,4.379c-2.327-0.549-0.962-3.232-0.678-4.962c3.065-18.639,7.297-37.048,11.002-55.561
		c0.433-0.366,0.671-0.794,0.444-1.372c0.116-0.677,0.231-1.352,0.347-2.026c0.121-2.147,1.727-4.238-0.379-6.665
		c-0.55,2.206-1.1,4.411-1.648,6.616c-4.554,12.703-9.587,25.21-15.289,37.506c2.381-14.127,7.519-27.507,10.574-41.459
		c-2.702,2.886-4.054,6.474-5.722,9.858c-7.346,14.91-14.614,29.859-21.918,44.791c-0.497,1.018-1.025,2.021-1.585,3.005
		c-0.416,0.732-1.116,1.036-1.908,0.778c-1.043-0.342-1.514-1.128-1.122-2.193c0.653-1.771,1.345-3.531,2.102-5.26
		c4.551-10.379,9.608-20.569,13.519-31.183c2.577-6.995,6.854-13.182,8.814-20.387c1.171-1.112,1.702-2.435,1.819-4.346
		c-1.891,1.088-2.017,2.59-2.446,3.925c-4.08,3.958-6.549,9.063-9.69,13.687c-3.812,5.61-7.478,11.32-11.264,16.949
		c-0.591,0.877-0.996,2.096-2.462,2.197c-1.725-1.227-0.165-2.351,0.328-3.253c5.691-10.4,11.473-20.753,17.23-31.118
		c0.821-1.334,2.237-2.45,1.852-4.463c-1.868,0.595-2.278,2.083-2.992,3.311c-7,8.63-14.007,17.254-21,25.89
		c-5.102,6.303-10.184,12.621-15.283,18.927c-0.473,0.586-0.993,1.137-1.506,1.688c-0.705,0.758-1.569,1.151-2.485,0.513
		c-0.953-0.664-0.808-1.578-0.201-2.45c1.292-1.856,2.544-3.743,3.889-5.563c10.083-13.643,20.187-27.271,30.28-40.904
		c0.575-0.677,1.215-1.313,1.718-2.041c0.39-0.566,0.824-1.354-0.097-1.779c-0.33-0.151-1.067,0.161-1.385,0.488
		C171.151,275.299,170.693,276.099,170.167,276.831z M262.922,216.932c0.327-24.482-19.996-45.803-45.839-45.449
		c-24.925,0.34-45.254,20.328-45.195,45.001c0.063,25.631,21.135,46.585,46.036,46.212
		C243.087,262.318,263.003,242.303,262.922,216.932z M167.421,254.155c-16.582-24.681-15.704-48.808-1.136-72.917
		c-1.673-0.842-2.611-0.051-3.604,0.402c-7.433,3.391-14.262,7.771-20.854,12.572c-7.368,5.367-14.14,11.4-20.34,18.055
		c-3.875,4.159-3.781,4.72-0.294,8.971c0.36,0.438,0.711,0.887,1.103,1.296C134.966,235.793,149.24,246.782,167.421,254.155z
		 M268.879,180.63c6.725,11.285,11.032,23.113,11.171,36.379c0.138,13.237-4.161,24.98-11.337,35.793
		c1.136,0.726,1.793,0.258,2.462-0.037c17.072-7.49,31.382-18.672,43.528-32.705c2.222-2.566,2.13-3.536-0.707-6.807
		C301.565,198.923,286.504,188.153,268.879,180.63z M207.985,283.5c-0.202-0.468-0.341-0.791-0.48-1.112
		c-0.184,0.491-0.453,0.973-0.518,1.48c-0.036,0.291,0.261,0.624,0.407,0.938C207.605,284.338,207.817,283.87,207.985,283.5z
		 M262.369,275.287c-1.063,0.203-0.887,0.761-0.698,1.196c0.122,0.281,0.567,0.688,0.725,0.634c0.396-0.141,1.037-0.278,0.709-1.018
		C262.893,275.623,262.624,275.276,262.369,275.287z"/>
	<path fill-rule="evenodd" clip-rule="evenodd" fill="#79618F" d="M190.192,204.707c7.055,6.266,12.282,6.754,16.995,1.793
		c4.301-4.526,3.445-10.568-2.317-16.37c8.366-6.629,24.597-4.151,33.88,5.168c10.903,10.948,11.999,29.045,2.477,40.923
		c-9.322,11.629-26.688,14.587-39.417,6.974C189.32,235.725,183.583,218.514,190.192,204.707z"/>
</g>
</svg>
