<?xml version="1.0" encoding="utf-8"?>
<!-- Generator: Adobe Illustrator 16.0.0, SVG Export Plug-In . SVG Version: 6.00 Build 0)  -->
<!DOCTYPE svg PUBLIC "-//W3C//DTD SVG 1.0//EN" "http://www.w3.org/TR/2001/REC-SVG-20010904/DTD/svg10.dtd">
<svg version="1.0" id="Layer_1" xmlns="http://www.w3.org/2000/svg" xmlns:xlink="http://www.w3.org/1999/xlink" x="0px" y="0px"
	 width="435.33px" height="446.422px" viewBox="0 0 435.33 446.422" enable-background="new 0 0 435.33 446.422"
	 xml:space="preserve">
<path fill="#B78D37" d="M407.947,138.905c-15.122,0-27.382,12.26-27.382,27.383c0,2.037,0.229,4.02,0.651,5.931l-19.673,9.971
	c-3.091-2.919-7.257-4.712-11.845-4.712c-3.021,0-5.858,0.778-8.329,2.142l-4.815-4.244c2.052-3.754,3.22-8.061,3.22-12.64
	c0-14.574-11.814-26.39-26.39-26.39c-8.099,0-15.342,3.652-20.184,9.395l-54.335-28.069c0.433-1.815,0.668-3.707,0.668-5.655
	c0-11.527-8.02-21.175-18.782-23.686l-0.468-38.31c11.055-2.745,19.25-12.73,19.25-24.635C239.534,11.366,228.168,0,214.147,0
	s-25.386,11.366-25.386,25.386c0,12.119,8.494,22.248,19.852,24.774l0.468,38.306c-10.472,2.715-18.205,12.229-18.205,23.551
	c0,6.701,2.709,12.768,7.092,17.168l-21.94,36.175c-1.495-0.367-3.058-0.566-4.666-0.566c-2.561,0-5.003,0.498-7.243,1.395
	l-8.059-9.885c3.709-4.663,5.932-10.562,5.932-16.982c0-15.08-12.225-27.305-27.305-27.305s-27.305,12.225-27.305,27.305
	c0,6.783,2.479,12.982,6.572,17.757L88.616,190.61c-2.964-1.276-6.229-1.986-9.66-1.986c-13.504,0-24.45,10.946-24.45,24.45
	c0,11.452,7.876,21.062,18.505,23.717l-0.123,26.658c-12.852,2.64-22.517,14.014-22.517,27.647c0,3.417,0.607,6.692,1.72,9.723
	l-10.227,6.409c-4.443-4.328-10.509-6.997-17.201-6.997C11.043,300.231,0,311.273,0,324.895c0,13.62,11.043,24.663,24.663,24.663
	c13.621,0,24.662-11.043,24.662-24.663c0-2.72-0.446-5.333-1.26-7.779l10.236-6.415c5.131,5.312,12.324,8.621,20.294,8.621
	c3.157,0,6.189-0.526,9.024-1.482l10.519,17.8c-4.948,4.715-8.037,11.363-8.037,18.738c0,10.34,6.063,19.261,14.827,23.409
	l-3.066,14.105c-10.566,0.789-18.895,9.605-18.895,20.373c0,11.287,9.149,20.438,20.438,20.438s20.438-9.15,20.438-20.438
	c0-7.711-4.271-14.42-10.574-17.9l3.066-14.107c14.139-0.188,25.542-11.7,25.542-25.88c0-14.297-11.589-25.888-25.888-25.888
	c-2.722,0-5.345,0.423-7.809,1.201l-10.514-17.791c5.626-5.159,9.154-12.568,9.154-20.803c0-1.473-0.113-2.918-0.331-4.331
	l25.881-9.807c3.428,4.236,8.666,6.946,14.54,6.946c10.125,0,18.364-8.049,18.682-18.097l18.857-5.533
	c4.952,9.401,14.813,15.813,26.178,15.813c16.334,0,29.575-13.242,29.575-29.576c0-1.478-0.111-2.929-0.321-4.349l10.129-3.653
	c3.924,5.615,10.345,9.352,17.654,9.6l6.761,29.101c-6.987,3.763-11.738,11.145-11.738,19.638c0,12.312,9.98,22.292,22.292,22.292
	c1.692,0,3.337-0.194,4.921-0.551l10.306,19.44c-5.105,4.531-8.326,11.141-8.326,18.504c0,1.146,0.084,2.271,0.235,3.377
	l-24.948,9.819c-4.905-7.308-13.242-12.116-22.704-12.116c-15.092,0-27.326,12.233-27.326,27.325s12.234,27.326,27.326,27.326
	s27.325-12.234,27.325-27.326c0-1.48-0.121-2.932-0.348-4.348l24.95-9.822c4.479,6.354,11.867,10.506,20.23,10.506
	c1.171,0,2.321-0.086,3.448-0.244l5.701,14.355c-7.468,5-12.386,13.51-12.386,23.172c0,15.389,12.476,27.865,27.865,27.865
	s27.865-12.477,27.865-27.865c0-15.391-12.476-27.865-27.865-27.865c-1.579,0-3.124,0.137-4.632,0.391l-5.702-14.361
	c6.318-4.482,10.445-11.851,10.445-20.188c0-6.926-2.85-13.186-7.438-17.676l9.216-15.494c1.972,0.559,4.05,0.864,6.2,0.864
	c12.539,0,22.705-10.166,22.705-22.704c0-10.496-7.122-19.323-16.795-21.925l0.23-68.601c6.688-2.377,11.478-8.759,11.478-16.263
	c0-0.724-0.05-1.436-0.137-2.136l19.299-9.782c5,6.592,12.915,10.853,21.827,10.853c15.123,0,27.383-12.26,27.383-27.382
	C435.33,151.165,423.07,138.905,407.947,138.905z M287.836,156.105c-0.549,2.119-0.841,4.34-0.841,6.63
	c0,6.738,2.529,12.883,6.685,17.546l-17.373,24.323c-2.448-0.916-5.098-1.419-7.866-1.419c-1.767,0-3.482,0.21-5.131,0.595
	l-6.496-12.091c3.63-3.642,5.874-8.665,5.874-14.213c0-11.12-9.015-20.135-20.136-20.135c-0.689,0-1.372,0.036-2.044,0.103
	l-10.813-25.885c1.394-1.035,2.668-2.218,3.811-3.522L287.836,156.105z M102.347,275.855c-3.99-6.206-10.34-10.745-17.788-12.347
	l0.123-26.667c10.739-2.578,18.724-12.238,18.724-23.768c0-5.848-2.057-11.215-5.481-15.422l25.338-33.531
	c3.477,1.604,7.345,2.505,11.425,2.505c4.438,0,8.625-1.065,12.33-2.944l8.056,9.882c-2.037,3.082-3.227,6.774-3.227,10.745
	c0,6.709,3.387,12.625,8.542,16.138l-13.926,46.077c-10.118,0.239-18.247,8.51-18.247,18.685c0,0.28,0.009,0.56,0.021,0.837
	L102.347,275.855z M235.926,231.183c-5.187-8.541-14.575-14.247-25.298-14.247c-16.334,0-29.576,13.241-29.576,29.576
	c0,0.864,0.045,1.717,0.117,2.562l-18.858,5.534c-1.266-1.835-2.852-3.431-4.676-4.711l13.927-46.079
	c10.685-0.108,19.314-8.799,19.314-19.51c0-4.942-1.842-9.453-4.871-12.891l21.938-36.174c2.294,0.716,4.732,1.103,7.262,1.103
	c1.266,0,2.508-0.097,3.721-0.284l10.813,25.883c-4.472,3.693-7.321,9.28-7.321,15.532c0,11.121,9.015,20.135,20.134,20.135
	c1.364,0,2.694-0.137,3.982-0.396l6.497,12.092c-4.346,4.098-7.063,9.905-7.063,16.349c0,0.631,0.033,1.254,0.084,1.873
	L235.926,231.183z M316.621,331.794c-2.108,0-4.154,0.265-6.107,0.761L300.21,313.12c4.344-4.067,7.062-9.85,7.062-16.271
	c0-12.038-9.542-21.841-21.475-22.271l-6.762-29.101c7.068-3.787,11.877-11.24,11.877-19.819c0-5.418-1.917-10.387-5.11-14.267
	l17.369-24.316c3.142,1.32,6.593,2.05,10.214,2.05c5.771,0,11.104-1.857,15.447-4.999l4.823,4.25
	c-0.78,1.969-1.215,4.113-1.215,6.359c0,7.462,4.737,13.818,11.368,16.226l-0.23,68.596c-9.749,2.55-16.944,11.417-16.944,21.966
	c0,6.178,2.473,11.777,6.477,15.87l-9.212,15.488C321.597,332.176,319.154,331.794,316.621,331.794z"/>
</svg>
