<?xml version="1.0" encoding="utf-8"?>
<!-- Generator: Adobe Illustrator 16.0.0, SVG Export Plug-In . SVG Version: 6.00 Build 0)  -->
<!DOCTYPE svg PUBLIC "-//W3C//DTD SVG 1.0//EN" "http://www.w3.org/TR/2001/REC-SVG-20010904/DTD/svg10.dtd">
<svg version="1.0" id="Layer_1" xmlns="http://www.w3.org/2000/svg" xmlns:xlink="http://www.w3.org/1999/xlink" x="0px" y="0px"
	 width="433.032px" height="447.721px" viewBox="0 0 433.032 447.721" enable-background="new 0 0 433.032 447.721"
	 xml:space="preserve">
<g>
	<path fill-rule="evenodd" clip-rule="evenodd" fill="#55814B" d="M33.678,250.97c9.224,2.307,18.602,2.391,28.634,1.748
		c-4.32,5.867-9.713,9.101-16.161,10.696c-8.009,1.981-15.29,0.218-21.876-4.603c-4.991-3.652-9.412-7.875-13.127-13.369
		c8.05-3.744,15.729-7.47,24.153-9.249c4.868-1.028,9.578,0.02,14.036,1.972c3.445,1.508,6.739,3.361,10.096,5.068
		c1.926,0.979,3.979,1.709,5.601-0.254c1.497-1.813,1.924-4.043,0.716-6.248c-0.738-1.346-1.646-2.609-2.554-3.854
		c-7.529-10.323-12.841-21.836-17.999-33.435c-0.069-0.157-0.175-0.303-0.217-0.466c-0.457-1.764-2.192-3.953-0.804-5.232
		c1.834-1.689,4.167-0.008,6.097,1.006c2.809,1.474,4.844,3.824,6.547,6.421c2.819,4.3,5.638,8.606,8.248,13.034
		c12.941,21.949,32.396,34.264,57.092,39.057c6.746,1.311,13.57,1.871,20.356,2.761c21.732,2.852,38.976,13.594,52.605,30.247
		c17.732,21.666,30.098,46.133,36.646,73.441c0.388,1.615,0.825,3.218,1.621,4.735c1.198-15.499,0.017-30.581-7.369-44.633
		c-4.868-9.262-10.085-18.344-15.946-26.993c-7.609-11.231-12.919-23.294-15.641-36.598c-1.095-5.35-2.991-10.539-4.561-15.791
		c-4.816-16.111-14.238-29.119-26.901-39.961c-10.829-9.27-22.175-17.842-34.172-25.547c-12.436-7.985-23.937-17.222-35.345-26.568
		c-1.717-1.406-4.866-2.656-3.903-5.313c0.718-1.979,3.74-0.654,5.667-1.169c0.164-0.044,0.319-0.124,0.768-0.3
		c0.089-4.179-2.404-7.222-5.06-9.991c-4.746-4.949-9.652-9.754-14.638-14.463c-11.89-11.228-17.116-24.879-15.566-41.196
		c0.498-5.239,2.647-9.891,4.423-14.697c0.414-1.119,1.094-1.681,2.343-0.983c7.445,4.155,14.566,8.611,16.613,17.795
		c1.109,4.978,0.788,9.911-0.932,14.679c-1.219,3.377-2.507,3.647-5.097,1.322c-1.724-1.547-3.659-2.934-3.825-5.662
		c-0.046-0.754-1.117-1.446-1.859-2.336c-2.625,8.956,9.189,22.118,20.836,29.689c1.255-1.034,0.763-2.499,0.773-3.748
		c0.049-6.003-0.013-12.007-0.029-18.012c-0.004-1.372-0.041-2.748,0.042-4.116c0.234-3.893,1.692-6.037,4.143-6.204
		c2.289-0.156,4.765,1.938,5.625,5.195c0.831,3.149,1.184,6.405,1.201,9.678c0.044,8.233,0.196,16.469,0.097,24.701
		c-0.164,13.678,5.008,24.578,16.155,32.692c4.53,3.298,9.145,6.352,14.517,8.425c-3.355-3.347-5.643-7.414-8.427-11.117
		c-5.074-6.746-9.698-13.739-11.37-22.231c-1.031-5.235-1.717-10.535-1.252-15.852c0.899-10.307,1.042-20.546-1.325-30.702
		c-0.186-0.798-0.024-1.677-0.024-2.787c4.509,0.956,7.358,3.611,9.029,7.593c1.608,3.833,2.284,7.879,2.405,12.031
		c0.187,6.342,0.389,12.684,0.639,19.023c0.478,12.158,5.107,22.583,13.185,31.587c4.463,4.975,9.309,9.527,14.421,13.951
		c1.082-1.813-0.129-2.924-0.653-4.066c-3.298-7.185-7.659-13.773-11.766-20.498c-6.491-10.628-8.601-22.257-8.196-34.499
		c0.032-0.986-0.24-2.088,1.04-3.151c6.438,5.988,12.803,12.255,21.182,15.674c1.215,0.496,2.438,1.388,4.566,0.6
		c-1.746-11.747-0.29-23.565,2.094-35.442c0.437,1.827,0.891,3.65,1.303,5.482c0.414,1.838,0.798,3.683,1.176,5.528
		c1.07,5.211,2.33,10.404,4.469,15.26c3.332,7.573,1.604,14.374-2.453,20.97c-0.805,1.308-1.732,2.574-2.782,3.692
		c-3.82,4.067-4.946,8.894-4.206,14.273c0.941,6.843,2.639,13.443,6.291,19.415c7.012,11.467,16.021,21.333,25.369,32.11
		c-0.728-5.267-2.243-9.393-3.368-13.605c-2.616-9.795-5.026-19.649-4.617-29.868c0.696-17.371,8.109-30.897,23.499-39.62
		c0.445-0.253,0.896-0.514,1.376-0.681c0.306-0.106,0.67-0.048,1.03-0.064c1.345,1.111,0.162,2.229-0.131,3.221
		c-1.316,4.461-3.654,8.482-5.723,12.613c-4.744,9.472-6.982,19.443-5.957,30.123c2.279-15.085,9.308-28.735,12.924-43.186
		c7.094,13.1,8.567,31.869-5.795,43.032c-5.529,4.299-6.523,9.291-5.343,15.844c3.176,17.615,10.29,33.675,18.503,49.355
		c0.348,0.662,0.593,1.662,2.24,1.507c0.326-1.237,0.766-2.649,1.068-4.091c3.032-14.441,7.351-28.518,12.11-42.464
		c2.112-6.188,3.593-12.494,4.097-19.028c0.572-7.396-0.678-14.347-4.799-20.638c-1.878-2.867-3.867-5.668-5.641-8.598
		c-3.129-5.167-3.494-10.604-1.342-16.287c1.805-0.285,3.012,0.764,4.252,1.517c12.643,7.674,19.58,18.81,20.395,33.674
		c0.533,9.713-1.316,19.115-3.558,28.471c-0.355,1.483-0.901,2.924-0.778,4.414c0.555,0.492,0.98,0.305,1.301-0.096
		c4.503-5.64,9.726-10.621,14.555-15.961c5.599-6.189,9.793-13.142,11.483-21.491c1.127-5.565-0.017-10.525-3.058-15.163
		c-0.655-1-1.432-1.926-2.212-2.837c-6.403-7.483-6.507-7.487-16.072-5.415c-2.814,0.609-5.882,2.37-8.437,1.197
		c-2.357-1.081-2.776-4.54-4.227-6.849c-3.922-6.24-7.808-12.503-11.721-18.748c-2.937-4.686-5.154-9.662-6.318-15.094
		c-0.676-3.152-0.35-6.074,1.293-8.917c6.897-11.937,10.441-24.875,11.518-38.575c0.401-5.122,0.998-10.259,2.826-15.119
		c0.826-2.193,1.632-5.58,4.054-5.301c2.814,0.325,2.048,3.809,2.147,6.052c0.492,11.168-0.254,22.279-1.777,33.345
		c-0.158,1.145-0.561,2.312,0.203,4.025c4.484-4.404,7.793-9.219,9.385-15.097c0.65-2.403-0.501-4.737-0.997-7.061
		c-2.615-12.251,3.018-24.857,14.367-31.597c0.753,1.284,0.416,2.582,0.138,3.842c-1.736,7.86-3.305,15.765-5.291,23.563
		c-3.077,12.079-9.127,22.822-15.703,33.277c-1.642,2.609-3.51,5.077-5.309,7.585c-3.584,4.998-4.113,10.426-2.192,16.136
		c1.796,5.338,4.871,10.027,7.888,15.075c0.34-20.976,13.673-34.061,27.745-47.371c0.728,2.109,0.321,3.89,0.061,5.598
		c-0.671,4.405-1.39,8.805-2.215,13.182c-0.902,4.781-0.808,9.548-0.162,14.335c0.366,2.718,0.8,5.432,1.03,8.162
		c0.516,6.1-0.096,12.063-3.49,17.32c-1.368,2.118-0.694,3.413,0.699,4.89c0.903,0.958,1.876,0.964,2.596-0.022
		c2.82-3.865,7.203-4.924,11.27-6.724c6.144-2.719,11.568-6.658,16.551-11.184c0.725-0.657,1.146-1.718,2.674-1.915
		c0.814,8.988-0.427,17.6-3.545,26.007c-2.408,6.496-6.094,12.245-10.011,17.894c-3.493,5.034-7.308,9.88-9.849,15.411
		c0.713,0.896,1.436,0.635,1.986,0.334c11.187-6.125,21.77-13.02,29.871-23.146c4.309-5.385,6.679-11.438,7.361-18.308
		c0.884-8.901,0.744-17.818,0.842-26.732c0.045-4.173,0.676-8.206,2.404-12c1.35-2.964,3.438-4.426,5.393-3.854
		c2.629,0.771,3.873,2.823,4.039,5.395c0.154,2.385-0.021,4.794-0.104,7.191c-0.224,6.625-0.561,13.254,0.704,19.939
		c15.92-8.827,23.681-20.479,24.601-41.653c-2.428,3.901-3.027,7.781-4.097,11.49c-0.984,3.417-1.889,6.86-4.484,9.56
		c-1.481,1.542-2.673,1.33-3.708-0.301c-0.728-1.146-1.475-2.379-1.787-3.676c-2.002-8.333-0.975-16.026,5.254-22.438
		c3.486-3.59,7.466-6.49,12.368-8.436c3.463,5.179,5.201,10.841,5.759,16.859c1.479,15.979-3.877,29.298-15.855,39.957
		c-4.227,3.762-8.522,7.448-12.727,11.236c-2.551,2.298-4.942,4.77-6.797,7.689c-1.081,1.701-2.313,3.367-2.229,5.479
		c1.274,1.15,2.67,0.765,4.021,0.725c1.027-0.031,2.214-0.044,2.569,1.137c0.34,1.132-0.558,1.931-1.367,2.56
		c-5.688,4.416-11.375,8.832-17.107,13.19c-9.713,7.386-20.537,13.04-30.741,19.66c-6.766,4.39-13.465,8.862-19.382,14.396
		c-14.08,13.165-23.883,28.818-26.391,48.164c-1.861,14.354-1.082,28.702,3.266,43.055c1.955-0.475,2.941-1.923,4.135-2.979
		c11.909-10.539,25.302-18.195,41.166-20.844c6.58-1.099,13.255-1.615,19.855-2.604c10.168-1.522,20.244-3.416,29.612-7.994
		c13.031-6.368,22.796-16.262,30.643-28.215c3.196-4.869,6.075-9.945,9.222-14.849c2.715-4.231,5.906-8.023,10.823-9.874
		c1.093-0.412,2.292-1.278,3.367-0.392c1.12,0.923,0.47,2.221,0.063,3.33c-0.705,1.929-1.378,3.877-2.229,5.742
		c-5.42,11.863-11.164,23.549-19.051,34.033c-1.025,1.362-2.168,2.715-1.594,4.652c0.823,2.777,3.685,4.104,6.659,2.793
		c2.343-1.031,4.521-2.439,6.782-3.658c8.343-4.492,16.889-5.127,25.658-1.319c5.322,2.31,10.877,4.09,16.477,7.224
		c-6.362,8.078-12.691,15.794-23.414,17.914c-10.964,2.168-19.668-1.995-28.064-10.439c6.516-0.11,12.047,0.123,17.508-0.39
		c5.401-0.509,10.83-1.283,16.484-3.267c-1.29-0.958-2.46-0.494-3.487-0.445c-9.94,0.468-19.88,1.004-29.745-0.907
		c-1.175-0.228-2.399-0.362-3.496-0.802c-5.955-2.38-11.129-0.99-16.502,2.262c-9.533,5.77-19.621,10.49-30.496,13.32
		c2.762,3.726,10.715,6.84,15.736,5.94c2.508-0.449,5.012-1.175,7.379-2.12c8.811-3.519,17.168-2.197,25.188,2.26
		c7.347,4.084,13.874,9.371,20.738,14.275c-0.826,1.961-2.464,2.81-3.813,3.493c-11.626,5.888-23.306,11.638-37.043,9.416
		c-4.356-0.704-7.641-3.241-10.902-5.774c-2.813-2.184-5.468-4.644-7.869-7.276c-10.818-11.856-24.719-13.81-39.485-11.886
		c-12.385,1.613-22.776,8.033-32.188,15.893c-6.668,5.568-10.384,12.938-11.969,21.533c-1.378,7.469-1.98,14.942-1.773,22.513
		c0.404,14.746,0.865,29.491,1.129,44.24c0.256,14.188,5.552,25.87,16.482,35.029c11,9.218,23.6,14.938,37.619,17.655
		c4.033,0.781,8.107,1.352,12.146,2.111c2.012,0.379,4.038,0.818,5.964,1.498c2.706,0.955,4.7,2.842,5.728,5.555
		c1.924,5.076,0.058,7.76-5.318,7.244c-5.107-0.49-10.235-1.146-15.24-2.251c-7.626-1.683-15.446-2.694-22.748-5.644
		c-19.852-8.021-37.25-19.166-48.045-38.482c-5.953-10.652-10.346-22.006-14.602-33.403c-4.438-11.891-9.006-23.712-15.9-34.46
		c-0.41-1.547-1.215-2.81-2.719-4.053c0.19,2.1,0.971,3.521,1.718,4.955c4.335,13.715,8.612,27.449,13.021,41.14
		c4.058,12.602,9.516,24.565,16.274,35.977c6.154,10.39,14.51,18.077,25.617,22.866c8.465,3.648,16.723,7.744,24.644,12.48
		c1.4,0.838,3.155,1.242,4.365,3.478c-3.731,0.538-7.077,0.825-10.399,0.253c-9.463-1.627-18.707-4.033-27.725-7.431
		c-17.742-6.685-29.766-19.072-37.145-36.291c-2.703-6.308-4.761-12.845-6.928-19.343c-0.418-1.254-0.538-2.633-2.061-3.77
		c-0.307,19.687,2.021,37.941,20.065,50.9c-7.365,1.654-14.808,0.908-21.28,5.717c-0.061-3.238,1.972-6.041,0.012-8.65
		c-1.141-0.449-1.525,0.507-1.969,1.102c-5.811,7.815-13.715,12.231-23.086,14.264c-8.221,1.781-16.492,3.16-24.949,2.933
		c-0.976-0.026-1.95-0.14-3.629-0.267c1.769-2.336,3.85-3.09,5.687-4.102c6.332-3.486,13.266-5.506,19.989-8.032
		c7.11-2.671,13.089-6.705,16.976-13.425c0.947-1.639,1.783-3.318,2.228-5.171c0.208-0.867,0.26-1.765-0.446-2.395
		c-0.858-0.765-1.59-0.009-2.246,0.454c-0.979,0.692-1.913,1.453-2.823,2.233c-19.665,16.868-42.729,25.519-68.247,28.239
		c-0.852,0.091-1.71,0.137-2.567,0.156c-5.222,0.12-6.473-1.564-4.891-6.523c1.22-3.826,4.024-5.954,7.75-6.753
		c5.349-1.147,10.776-1.921,16.137-3.019c11.191-2.293,21.55-6.715,31.224-12.723c9.695-6.022,16.215-14.466,19.671-25.451
		c3.44-10.934,4.483-22.16,4.752-33.48c0.28-11.828,0.187-23.668,0.159-35.502c-0.04-17.479-6.822-31.106-22.447-39.974
		c-7.967-4.521-16.035-8.771-25.197-9.792c-15.695-1.748-30.03,1.271-41.125,13.664c-4.524,5.055-9.443,9.457-16.386,10.896
		c-4.433,0.918-8.911,1.036-13.288,0.17c-9.875-1.955-18.563-6.729-27.948-12.221c9.426-5.963,17.112-13.275,27.06-17.207
		c5.628-2.225,11.292-2.629,17.059-0.559c1.609,0.578,3.294,0.955,4.879,1.588c7.937,3.174,14.549,0.207,21.469-4.442
		c-6.705-2.554-12.984-4.642-18.86-7.681c-4.868-2.518-9.896-4.78-14.536-7.664c-3.559-2.21-7.073-2.457-10.812-1.402
		c-3.964,1.119-7.959,2.044-12.007,2.739c-10.963-0.12-21.959,0.374-32.72-1.464c1.817,0.977,3.749,2.037,6.006,2.208
		c0.313,0.146,0.642,0.205,0.987,0.181C31.543,250.854,32.538,251.169,33.678,250.97z M71.141,74.733
		c-0.075-2.449-1.245-4.45-2.782-6.352c1.184,2.671,0.414,5.686,1.686,8.331c0.004,0.739,0.363,1.579,0.996,1.513
		c0.758-0.078,0.699-0.772,0.315-1.5C71.067,76.177,71.198,75.406,71.141,74.733z M188.249,219.996
		c0.164,0.664,0.248,1.36,0.504,1.987c11.951,29.358,24.768,58.315,40.262,86.015c0.301,0.538,0.398,1.576,1.737,1.342
		c-1.466-9.763-3.706-19.227-6.761-28.512c-7.447-22.637-20.331-42.166-34.714-60.842c-0.494-1.102-1.132-2.066-2.972-3.241
		C187.5,218.27,187.233,219.476,188.249,219.996z M89.89,278.68c-0.088-0.347-0.177-0.692-0.266-1.039
		c-2.008,0.304-4.032,0.528-6.022,0.923c-10.867,2.148-21.08,7.131-32.367,7.499C65.13,288.597,77.33,282.744,89.89,278.68z
		 M341.129,277.627c12.684,7.126,32.201,11.112,39.816,7.886C366.805,285.871,354.798,278.496,341.129,277.627z M251.392,116.375
		c4.456-6.17,7.612-17.525,7.507-25.357c-1.515,4.153-2.717,8.393-3.801,12.681C254.019,107.963,252.639,112.152,251.392,116.375z
		 M70.29,80.213c0.321,1.604,0.644,3.413,1.07,5.196c0.095,0.395,0.362,0.851,1.06,0.769c0.715-0.083,0.713-0.623,0.875-1.024
		c0.787-1.95-1.442-3.311-1.054-5.234c0.121-0.597,0.016-1.36-0.961-1.344C70.254,78.594,70.509,79.413,70.29,80.213z"/>
	<path fill-rule="evenodd" clip-rule="evenodd" fill="#55814B" d="M287.879,223.359c5.396-0.891,10.518-2.973,15.977-3.623
		c6.447-0.77,12.884-1.609,19.965-1.429c-2.331,8.566-6.465,15.086-14.428,18.663c-5.551,2.492-11.485,3.315-17.494,3.686
		c-3.25,0.2-6.52,0.169-9.758,0.481c-9.182,0.887-17.115,4.453-23.754,10.989c-4.354,4.286-9.002,8.271-14.223,13.033
		c1.762-6.483,4.805-11.152,8.451-15.429c2.041-2.392,3.699-4.921,4.551-7.94c5.838-20.709,20.578-32.088,40.261-38.059
		c6.86-2.082,13.963-3.352,20.905-5.186c7.139-1.886,14.023-4.33,19.934-9.068c9.465-7.586,13.449-17.876,14.996-29.432
		c1.344-10.029,2.803-19.995,7.121-29.328c3.758-8.121,8.152-15.732,14.977-21.707c0.453-0.397,0.818-0.896,0.98-1.636
		c-3.961,1.971-7.194,4.889-10.351,7.892c-2.017,1.919-4.151,3.625-6.967,4.112c-2.604,0.451-3.448-0.391-3.12-3.086
		c0.667-5.479,3.838-9.472,8.033-12.661c4.035-3.067,8.656-4.865,13.795-4.945c4.731-0.074,9.51-0.473,14.561,1.198
		c-4.506,4.634-7.965,9.508-11.445,14.368c-8.342,11.65-13.449,24.551-15.444,38.752c-0.929,6.611-2.306,13.159-3.459,19.739
		c-0.263,1.5-0.441,3.016-0.712,4.891c2.359-0.471,3.305-2.158,4.509-3.401c5.007-5.172,9.834-10.503,15.228-15.31
		c7.094-6.322,15.246-8.108,24.373-6.516c0.668,0.117,1.331,0.317,1.967,0.56c0.448,0.17,0.846,0.476,2.068,1.19
		c-12.744,5.761-23.418,13.486-32.342,24.318c2.632-0.39,4.059-1.838,5.629-3.031c4.912-3.734,9.781-7.526,14.762-11.168
		c7.26-5.31,15.332-8.179,25.418-7.829c-3.685,2.565-6.705,4.587-9.643,6.727c-10.698,7.795-21.723,14.931-34.652,18.613
		c-4.981,1.419-9.335,4.243-13.58,7.163c-15.658,10.768-32.424,18.976-51.073,23.319c-9.322,2.171-18.271,5.711-26.624,10.535
		c-1.605,0.448-2.86,1.439-4.007,2.6c0.036,0.393-0.132,0.595-0.49,0.53c-0.108-0.02-0.189-0.191-0.282-0.293
		c0.247-0.077,0.496-0.155,0.743-0.233C284.741,224.629,286.67,224.81,287.879,223.359z"/>
	<path fill-rule="evenodd" clip-rule="evenodd" fill="#55814B" d="M48.293,109.752c3.258,4.17,6.856,8.065,9.778,12.508
		c6.939,10.551,10.204,22.356,12.083,34.663c1.145,7.492,3.072,14.728,6.749,21.453c4.811,8.802,11.604,15.114,21.306,18.212
		c7.032,2.246,14.21,3.785,21.433,5.209c13.308,2.623,25.596,7.496,36.007,16.492c7.131,6.164,12.892,13.255,15.768,22.402
		c1.142,3.633,3.074,6.699,5.696,9.563c4.109,4.487,7.554,9.53,9.236,15.644c-5.009-4.356-10.108-8.611-15.007-13.089
		c-8.732-7.983-18.76-12.28-30.76-12.083c-6.686,0.109-13.36-0.717-19.729-3.027c-8.721-3.164-13.757-9.563-16.344-18.323
		c7.339-1.47,24.521,0.37,40.223,6.559c-3.953-3.277-11.131-6.757-16.49-7.724c-2.891-0.521-4.928-2.759-7.733-3.402
		c-4.333-0.994-8.642-2.102-12.957-3.176c-16.476-4.102-31.342-11.872-45.802-20.441c-7.364-4.363-14.416-9.171-22.694-11.837
		c-5.059-1.63-9.611-4.521-14.085-7.378c-7.15-4.565-14.174-9.328-21.878-14.422c7.754-0.769,14.148,1.119,20.192,4.475
		c6.481,3.598,12.204,8.242,17.732,13.134c2.049,1.813,4.012,3.729,6.679,4.756c-1.423-3.684-6.263-8.711-13.468-14.545
		c-5.211-4.22-11.4-6.734-18.077-10.198c9.228-3.966,17.098-3.332,24.604,1.567c3.604,2.353,6.713,5.316,9.547,8.565
		c3.043,3.491,6.09,6.979,9.209,10.4c1.48,1.624,2.867,3.419,5.499,4.383c-1.411-5.898-3.108-11.42-4.216-17.083
		c-1.38-7.051-2.546-14.149-4.551-21.074c-4.09-14.125-11.943-26.08-21.214-37.239c-0.98-1.18-1.954-2.366-2.912-3.564
		c-0.087-0.109-0.042-0.324-0.092-0.831c8.089-1.861,16.088-2.194,23.771,1.618c5.945,2.949,10.222,7.474,11.722,14.148
		c0.866,3.854-0.336,5.097-3.903,3.708c-3.413-1.329-6.765-2.907-9.104-6.076c-1.412-1.914-3.401-3.357-5.435-4.644
		c-0.831-1.245-1.859-2.154-4.159-2.333C46.389,108.042,47.341,108.897,48.293,109.752z"/>
	<path fill-rule="evenodd" clip-rule="evenodd" fill="#55814B" d="M184.922,133.595c0.961-3.834-0.561-6.817-3.021-9.07
		c-7.365-6.742-10.244-15.589-12.352-24.883c-1.627-7.184-3.527-14.295-5.857-21.287c-2.021-6.063-2.267-12.359-2.774-18.603
		c1.876-0.561,2.333,0.865,3.041,1.681c5.053,5.824,10.112,11.645,15.048,17.568c5.992,7.191,11.238,14.775,11.112,25.007
		c4.673-3.764,10.126-13.505,10.673-18.507c0.554-5.067-1.668-8.934-5.127-12.327c-7.282-7.143-13.189-15.256-17.684-24.45
		c-2.207-4.513-3.607-9.236-4.777-14.06c-1.732-7.151-3.375-14.322-5.076-21.48c-0.355-1.499-0.763-2.977,0.238-4.891
		c8.099,5.434,13.553,12.458,15.014,22.197c0.484,3.226,0.719,6.647-0.41,9.693c-2.143,5.773,0.108,9.953,4.068,13.75
		c0.953,0.915,1.611,2.222,3.479,2.607c0.614-1.643,0.06-3.271-0.129-4.833c-1.139-9.409-0.914-18.814-0.018-28.221
		c0.098-1.021,0.149-2.073,0.441-3.044c0.449-1.491,1.423-1.929,2.592-0.683c1.678,1.787,2.515,4.054,3.313,6.321
		c1.549,4.399,2.133,9.004,2.667,13.59c1.206,10.337,4.043,20.247,9.117,29.247c7.218,12.802,5.483,24.589-2.571,36.072
		c-3.048,4.347-6.118,8.7-9.498,12.787C192.296,122.778,189.087,128.412,184.922,133.595z"/>
	<path fill-rule="evenodd" clip-rule="evenodd" fill="#55814B" d="M282.313,111.496c3.783-12.993,1.427-25.794,0.381-38.534
		c-0.954-11.621-2.105-23.227,0.592-34.769c0.465-1.988,1.005-4.003,1.858-5.845c0.896-1.935,2.177-1.953,3.52-0.274
		c1.788,2.236,2.292,4.982,2.61,7.687c0.841,7.14,1.506,14.301,2.232,21.455c0.381,3.743,0.742,7.488,1.137,11.485
		c1.413-0.577,1.598-1.688,1.852-2.737c0.939-3.869,0.952-7.827,0.895-11.757c-0.099-6.685,2.442-12.321,6.408-17.477
		c4.434-5.763,10.016-10.228,16.107-14.505c2.986,5.793,5.439,11.538,6.17,17.887c1.748,15.186-7.648,25.368-19.129,26.436
		c2.659-13.899,9.117-26.35,12.838-39.648c-5.802,10.1-10.289,20.706-12.862,32.099c-3.606,15.963-11.326,30.012-20.462,43.373
		C285.223,108.178,283.702,109.792,282.313,111.496z"/>
	<path fill-rule="evenodd" clip-rule="evenodd" fill="#55814B" d="M114.073,26.202c12.625,8.215,22.46,17.733,22.11,34.08
		c-0.163,7.653,0.116,8.224,2.724,12.894c0.777-9.45,1.491-18.208,2.221-26.965c0.356-4.279,0.947-8.521,2.627-12.513
		c0.522-1.24,1.131-2.744,2.765-2.677c1.679,0.068,2.038,1.713,2.428,2.959c2.435,7.768,3.077,15.777,2.951,23.865
		c-0.12,7.716-0.858,15.393-1.679,23.062c-1.041,9.741-1.484,19.461,1.276,29.07c-1.911,0.43-2.217-1.028-2.833-1.857
		c-10.401-14.023-18.68-29.023-22.129-46.413c-2.078-10.477-6.702-20.066-11.719-29.479c3.333,12.8,8.681,25.002,11.819,37.998
		c-10.483-0.855-17.351-8.293-18.407-19.49c-0.526-5.581,0.474-10.933,2.361-16.137C111.57,31.893,112.789,29.274,114.073,26.202z"
		/>
	<path fill-rule="evenodd" clip-rule="evenodd" fill="#55814B" d="M276.315,280.001c7.188-2.232,14.214-2.816,21.278-0.889
		c7.207,1.968,12.856,6.317,17.601,11.908c6.204,7.312,11.49,15.217,15.234,24.204c-2.098,1.597-4.48,1.589-6.814,1.763
		c-9.633,0.715-19.037-0.831-28.191-3.521c-5.754-1.693-9.694-6.312-12.726-11.21c-2.991-4.834-6.572-9.421-7.97-15.185
		c-0.66-2.721-3.208-4.176-6.34-5.68c4.312-1.193,7.199,0.082,9.959,1.777c5.125,3.148,9.73,6.995,14.349,10.818
		c5.274,4.365,10.335,9.014,16.343,12.408c1.432,0.809,2.938,1.488,4.57,1.929C301.885,297.996,292.116,285.177,276.315,280.001z"/>
	<path fill-rule="evenodd" clip-rule="evenodd" fill="#55814B" d="M118.438,307.256c2.022,0.849,3.009-0.417,4.098-1.053
		c4.597-2.687,8.727-6.023,12.781-9.454c5.623-4.76,11.389-9.323,17.748-13.084c2.669-1.58,5.409-2.888,8.928-2.539
		c-0.55,1.362-1.707,1.495-2.572,2.098c-1.775,1.232-3.593,2.576-3.868,5.101c-0.106,0.979-0.753,1.89-1.079,2.856
		c-6.375,18.888-20.775,25.573-39.356,25.857c-3.761,0.059-7.508,0.055-11.236-0.826c-2.019-0.477-2.697-1.126-1.722-3.074
		c4.767-9.53,10.014-18.758,17.919-26.099c10.265-9.533,22.239-10.861,35.35-6.854C140.387,285.546,130.09,297.076,118.438,307.256z
		"/>
	<path fill-rule="evenodd" clip-rule="evenodd" fill="#55814B" d="M215.462,5.978c-2.3,11.541-2.478,23.3-1.888,35.368
		c-3.75-0.544-5.693-2.913-7.297-5.48c-2.828-4.529-3.685-9.562-2.854-14.804c1.185-7.481,4.758-13.849,9.523-19.615
		c1.096-1.324,2.154-2.202,3.739-0.523c5.735,6.079,10.499,12.745,11.546,21.275c0.811,6.606-0.717,12.607-6.229,17.009
		c-0.664,0.529-1.41,0.974-2.168,1.362c-3.633,1.864-4.321,1.5-4.351-2.75C215.414,27.206,215.462,16.592,215.462,5.978z"/>
	<path fill-rule="evenodd" clip-rule="evenodd" fill="#55814B" d="M433.032,203.98c-8.1,22.211-27.988,26.777-41.568,16.064
		c9.781-3.733,20.238-4.826,29.591-10.65c-11.134,1.605-21.009,5.237-31.759,8.666c2.447-6.332,5.848-11.085,11.393-14.213
		c3.035-1.712,6.356-2.668,9.754-2.979C418.182,200.157,425.754,201.007,433.032,203.98z"/>
	<path fill-rule="evenodd" clip-rule="evenodd" fill="#55814B" d="M14.132,210.676c8.432,4.308,17.715,6.087,27.181,9.274
		c-3.55,3.51-7.844,4.834-12.33,5.371c-8.397,1.008-15.474-1.818-21.136-8.109c-2.992-3.325-5.474-7.004-7.368-11.059
		c-0.731-1.565-0.868-2.908,1.364-3.496c7.689-2.024,15.461-3.031,23.311-1.35c8.542,1.83,13.892,7.545,17.893,15.813
		c-9.726-2.277-18.499-6.043-27.884-7.262c-0.768-0.876-2.006-1.193-2.667-0.533C12.107,209.713,13.378,210.398,14.132,210.676z"/>
	<path fill-rule="evenodd" clip-rule="evenodd" fill="#55814B" d="M301.522,194.148c5.475-3.437,7.938-8.233,8.525-14.141
		c0.15-1.516,0.609-3.014,1.041-4.484c3.605-12.293,10.547-16.602,23.24-17.983c3.18-0.346,3.951,0.41,4.05,3.732
		c0.256,8.619-2.472,16.142-8.843,22.112C324.852,187.773,308.991,193.878,301.522,194.148z M333.825,163.91
		c-1.92,0.448-3.139,1.934-4.472,3.174c-5.366,4.996-10.228,10.451-14.493,16.425c-1.021,0.568-1.785,1.333-2,2.606
		c1.357,0.005,2.148-0.688,2.633-1.824c7.063-5.833,12.641-13.027,18.403-20.051c0.159-0.021,0.418,0.008,0.462-0.074
		c0.329-0.627,1.451-0.814,1.041-1.849C334.641,162.618,333.866,162.9,333.825,163.91z"/>
	<path fill-rule="evenodd" clip-rule="evenodd" fill="#55814B" d="M117.038,193.546c-18.761-0.885-33.807-12.506-32.446-27.32
		c5.153,2.549,8.696,6.646,12.62,10.238c4.001,3.662,7.999,7.328,12.292,10.686c-4.254-7.285-10.172-12.926-17.129-17.547
		c-1.851-1.229-3.763-2.363-5.62-3.583c-0.852-0.56-1.744-1.12-2.43-1.856c-0.862-0.926-1.065-2.168-0.631-3.354
		c0.431-1.176,1.585-1.174,2.602-1.163c9.617,0.112,17.802,3.042,23.02,11.77c2.13,3.563,3.381,7.438,4.232,11.481
		C114.313,186.523,114.775,190.252,117.038,193.546z"/>
	<path fill-rule="evenodd" clip-rule="evenodd" fill="#55814B" d="M303.092,172.359c-2.133,3.385-4.15,6.848-6.424,10.136
		c-4.686,6.781-9.916,13.147-16.207,18.494c-9.144,7.771-17.898,15.901-25.52,25.792c-0.74-1.617,0.086-2.578,0.436-3.506
		c6.246-16.587,15.531-30.75,31.221-40.058c5.523-3.276,10.821-6.994,15.564-11.421
		C302.473,171.984,302.783,172.171,303.092,172.359z"/>
	<path fill-rule="evenodd" clip-rule="evenodd" fill="#55814B" d="M392.458,189.478c0.682-1.961,1.836-3.66,3.235-5.133
		c7.903-8.313,17.593-13.146,28.718-14.965c0.432,0.557,0.822,0.832,0.798,1.063c-0.845,7.809-4.146,14.355-10.371,19.215
		c-6.519,5.088-13.851,5.016-21.403,2.92c-0.52-0.145-0.798-0.557-0.783-1.123c4.951-3.061,9.904-6.123,15.234-9.418
		c-2.377,0.288-3.895,1.429-5.568,2.19C398.922,185.771,396.024,188.251,392.458,189.478z"/>
	<path fill-rule="evenodd" clip-rule="evenodd" fill="#55814B" d="M329.579,235.205c3.174-6.225,6.287-12.438,9.512-18.593
		c1.031-1.968,2.373-3.759,4.301-5.017c7.802-5.092,15.594-10.199,23.691-15.012c-1.924,3.669-4.66,6.707-6.718,10.216
		c-2.938,5.009-6.405,9.704-9.603,14.562c-4.511,6.854-10.776,11.343-18.518,13.869c-0.482,0.156-0.984,0.299-1.485,0.333
		C330.454,235.583,330.133,235.383,329.579,235.205z"/>
	<path fill-rule="evenodd" clip-rule="evenodd" fill="#55814B" d="M1.994,169.269c14.174,2.818,24.55,10.545,32.326,22.357
		C21.082,199.438,2.911,186.914,1.994,169.269z"/>
	<path fill-rule="evenodd" clip-rule="evenodd" fill="#55814B" d="M121.079,177.177c2.056-0.635,2.821,0.574,3.736,1.158
		c6.769,4.33,13.554,8.641,20.182,13.179c10.377,7.106,17.049,17.11,21.725,28.588c0.191,0.47,0.278,0.984,0.379,1.485
		c0.021,0.105-0.117,0.242-0.268,0.528c-6.247-7.716-14.242-13.351-22.054-19.168c-8.891-6.621-16.212-14.671-22.486-23.739
		C121.918,178.667,121.614,178.078,121.079,177.177z"/>
	<path fill-rule="evenodd" clip-rule="evenodd" fill="#55814B" d="M63.739,199.103c7.35,4.156,14.75,8.227,22.025,12.512
		c2.852,1.681,4.673,4.498,6.242,7.362c2.951,5.386,5.79,10.833,9.003,16.87c-6.374-1.019-11.349-3.736-15.792-7.472
		c-1.814-1.524-3.455-3.341-4.861-5.255c-5.733-7.797-11.346-15.685-17.002-23.539C63.481,199.421,63.61,199.261,63.739,199.103z"/>
	<path fill-rule="evenodd" clip-rule="evenodd" fill="#55814B" d="M265.334,10.607c6.932,8.693,9.507,18.094,4.808,28.595
		c-1.996,4.461-5.396,7.418-10.21,8.577c-2.312,0.557-2.869,0.036-2.295-2.247c0.666-2.644,1.489-5.25,2.273-7.864
		C262.552,28.862,264.353,19.896,265.334,10.607z"/>
	<path fill-rule="evenodd" clip-rule="evenodd" fill="#55814B" d="M174.678,47.819c-8.46-0.658-13.674-5.926-14.986-14.333
		c-1.279-8.199,0.982-15.928,7.232-23.458C167.805,23.173,169.961,35.485,174.678,47.819z"/>
	<path fill-rule="evenodd" clip-rule="evenodd" fill="#55814B" d="M373.596,141.253c1.428-10.101,10.377-27.766,18.785-32.191
		c-0.443,5.354-0.691,10.582-1.361,15.754c-0.545,4.211-2.715,7.696-6.182,10.239C381.424,137.558,377.569,139.235,373.596,141.253z
		"/>
	<path fill-rule="evenodd" clip-rule="evenodd" fill="#55814B" d="M31.603,109.359c9.848,8.952,14.929,19.443,19.106,30.718
		c-10.978-1.781-16.653-7.506-17.807-17.771C32.462,118.396,32.113,114.475,31.603,109.359z"/>
	<path fill-rule="evenodd" clip-rule="evenodd" fill="#55814B" d="M217.614,195.324c-1.481-8.623-4.635-16.706-7.676-24.823
		c-0.24-0.64-0.498-1.284-0.625-1.949c-0.43-2.246,0.285-2.899,2.901-2.727c7.387,0.487,12.524,7.472,10.866,14.946
		C221.968,185.786,219.667,190.403,217.614,195.324z"/>
	<path fill-rule="evenodd" clip-rule="evenodd" fill="#55814B" d="M231.249,163.752c-10.139-6.258-14.747-13.363-11.664-33.709
		c2.465,6.648,6.146,11.886,9.154,17.496C231.639,152.949,232.219,157.333,231.249,163.752z"/>
</g>
</svg>
