<?xml version="1.0" encoding="utf-8"?>
<!-- Generator: Adobe Illustrator 16.0.0, SVG Export Plug-In . SVG Version: 6.00 Build 0)  -->
<!DOCTYPE svg PUBLIC "-//W3C//DTD SVG 1.0//EN" "http://www.w3.org/TR/2001/REC-SVG-20010904/DTD/svg10.dtd">
<svg version="1.0" id="Layer_1" xmlns="http://www.w3.org/2000/svg" xmlns:xlink="http://www.w3.org/1999/xlink" x="0px" y="0px"
	 width="399.265px" height="445.038px" viewBox="0 0 399.265 445.038" enable-background="new 0 0 399.265 445.038"
	 xml:space="preserve">
<g>
	<path fill="none" d="M260.133,284.226c15.807-1.837,31.609-3.709,47.418-5.534c2.123-0.245,2.355-1.336,1.635-3.01
		c-1.662-3.866-3.277-7.754-5.022-11.58c-5.304-11.626-10.658-23.227-15.993-34.836c-0.468-0.029-0.935-0.061-1.402-0.09
		c-9.609,18.176-19.219,36.353-28.977,54.809C259.054,284.122,259.605,284.286,260.133,284.226z"/>
	<path fill="none" d="M306.422,142.26c-6.429,0.213-12.752-0.942-19.066-1.502c-5.568-0.494-11.236-0.532-16.834-1.551
		c-1.524-0.275-3.121-0.577-4.735-0.711c-0.539-0.044-1.078-0.069-1.619-0.07c-2.159,0-4.318,0.408-6.349,1.681l0,0
		c9.215,18.809,19.102,37.263,29.472,56.635c2.915-6.494,5.388-11.988,7.845-17.488c4.705-10.537,9.402-21.079,14.102-31.618
		C311.224,143.805,310.542,142.121,306.422,142.26z"/>
	<path fill="none" d="M266.763,238.939c0.04-0.024,0.069-0.053,0.105-0.08c0.06-0.042,0.121-0.081,0.173-0.129
		c0.043-0.038,0.074-0.082,0.11-0.124c0.035-0.039,0.074-0.077,0.104-0.119c0.038-0.051,0.066-0.108,0.097-0.163
		c0.021-0.037,0.046-0.071,0.063-0.11c0.03-0.065,0.054-0.134,0.076-0.203c0.011-0.032,0.025-0.063,0.036-0.096
		c0.021-0.078,0.037-0.161,0.053-0.243c0.005-0.026,0.012-0.052,0.017-0.079c0.014-0.092,0.023-0.187,0.03-0.282
		c0.002-0.019,0.005-0.038,0.006-0.057c0.007-0.108,0.009-0.22,0.009-0.331c0-0.008,0-0.014,0-0.02
		c0.791-0.397,1.047-1.068,1.104-1.84c0-0.007,0.001-0.011,0.001-0.017c0.007-0.095,0.009-0.191,0.01-0.289
		c0-0.017,0.003-0.032,0.003-0.049c0.813-0.428,1.059-1.151,1.112-1.973c0.005-0.071,0.01-0.142,0.012-0.213l0,0
		c0.004-0.003,0.007-0.005,0.01-0.007c0.075-0.048,0.147-0.098,0.213-0.151c0.007-0.005,0.012-0.012,0.019-0.016
		c0.129-0.108,0.242-0.226,0.336-0.355c0.002-0.001,0.002-0.002,0.003-0.004c0.049-0.067,0.093-0.134,0.132-0.205
		c0.162-0.291,0.257-0.622,0.3-0.982l0.1-0.438c0.298-0.424,0.595-0.848,0.893-1.271l0,0c1.051-0.383,1.241-1.214,1.144-2.195
		c1.005-0.393,1.208-1.211,1.136-2.174c0-0.003,0-0.005,0-0.006l0.001-0.001c1.001-0.401,1.189-1.246,1.155-2.212
		c-0.006,0.003-0.011,0.008-0.016,0.011c1.317-3.506,1.137-3.993-1.662-4.29c-1.088-0.115-2.195-0.017-3.293-0.043
		c-18.097-0.437-36.136,1.908-54.24,1.107c-0.723-0.031-1.479,0.006-2.169,0.196c-0.123,0.033-0.24,0.087-0.354,0.152
		c-0.342,0.196-0.652,0.504-0.983,0.733l0,0c-0.23,0.187-0.489,0.243-0.776,0.17c-0.164,0.117-0.308,0.228-0.435,0.335
		c-0.042,0.035-0.07,0.066-0.108,0.1c-0.077,0.069-0.157,0.14-0.22,0.205c-0.034,0.035-0.058,0.067-0.087,0.103
		c-0.051,0.059-0.105,0.117-0.145,0.174c-0.022,0.033-0.035,0.063-0.054,0.095c-0.031,0.052-0.066,0.105-0.087,0.155
		c-0.013,0.03-0.016,0.057-0.024,0.085c-0.015,0.047-0.032,0.097-0.036,0.142c-0.003,0.026,0.002,0.05,0.002,0.075
		c0,0.044-0.001,0.09,0.009,0.132c0.004,0.021,0.017,0.042,0.022,0.063c0.015,0.043,0.028,0.085,0.05,0.124
		c0.012,0.02,0.026,0.036,0.038,0.053c0.028,0.042,0.056,0.082,0.091,0.121c0.013,0.015,0.029,0.027,0.043,0.041
		c0.041,0.041,0.083,0.082,0.132,0.12c0.012,0.01,0.024,0.018,0.035,0.027c0.057,0.042,0.115,0.085,0.178,0.126
		c0.002,0.001,0.007,0.003,0.009,0.005c0.425,0.273,0.989,0.507,1.419,0.78c0.001,0,0.004,0.002,0.007,0.003
		c-0.001,0.006,0,0.012-0.001,0.019c-0.05,0.963,0.142,1.795,1.172,2.159c0.003,0,0.005,0.002,0.007,0.002c0,0.002,0,0.004,0,0.007
		c-0.219,1.681,0.536,2.768,2.081,3.37c0.002,0.002,0.005,0.003,0.008,0.004c-0.002,0.127,0.002,0.253,0.01,0.374
		c0,0.004,0.002,0.01,0.002,0.015c0.009,0.115,0.022,0.228,0.042,0.338c0.003,0.012,0.007,0.023,0.01,0.036
		c0.02,0.101,0.043,0.198,0.074,0.292c0.008,0.02,0.018,0.038,0.025,0.06c0.031,0.081,0.063,0.164,0.105,0.24
		c0.015,0.025,0.034,0.048,0.05,0.073c0.041,0.066,0.082,0.134,0.134,0.194c0.027,0.031,0.063,0.058,0.092,0.088
		c0.05,0.048,0.095,0.098,0.152,0.142c0.057,0.044,0.127,0.081,0.194,0.119c0.038,0.023,0.072,0.049,0.113,0.069
		c0.116,0.057,0.244,0.104,0.385,0.145c6.132,9.094,11.308,18.762,16.938,28.156c3.517,5.867,6.75,11.918,10.849,17.599
		c2.45-2.771,3.678-5.858,5.326-8.687c5.604-9.619,10.006-19.895,15.978-29.312C266.542,239.061,266.658,239.002,266.763,238.939z"
		/>
	<path fill="none" d="M141.702,284.324c-10.212-19.148-19.93-37.368-30.081-56.404c-7.873,17.276-15.566,33.389-22.539,50.375
		C106.723,280.172,123.594,282.873,141.702,284.324z"/>
	<path fill="none" d="M168.901,287.579c20.268,0.004,40.535,0.002,60.804-0.009c0.451,0,0.912,0.017,1.356-0.014
		c0.71-0.049,1.373-0.216,1.872-0.767c0.188-0.206,0.352-0.467,0.486-0.794c0.418-2.058-0.957-3.46-1.902-4.974
		c-7.276-11.645-14.267-23.458-21.152-35.337c-3.345-5.766-6.978-11.362-10.506-17.078c-0.745,0.563-1.13,0.717-1.298,0.999
		c-11.098,18.742-22.178,37.495-33.261,56.248C165.905,287.671,167.439,287.578,168.901,287.579z"/>
	<path fill="none" d="M303.438,207.156c9.336,0.052,18.676,0.106,28.012-0.049c3.779-0.063,7.558-0.614,11.158-1.946
		c0.187-1.769-0.84-3.169-1.508-4.646c-6.501-14.364-13.05-28.705-19.575-43.06c-0.317-0.696-0.724-1.216-1.664-1.294
		c-1.215,2.82-2.447,5.678-3.676,8.538c-5.854,13.632-11.706,27.266-17.559,40.898C299.658,207.86,301.731,207.146,303.438,207.156z
		"/>
	<path fill="none" d="M156.445,273.622c9.966-16.68,19.885-33.386,29.818-50.084c0.563-0.949,1.171-1.882,0.896-3.073
		c-1.378-1.801-3.357-1.083-5.109-1.166c-8.03-0.379-16.044-0.089-24.116-0.835c-10.372-0.958-20.897-0.252-31.356-0.278
		c-0.297,0-0.586,0.007-0.862,0.03c-0.149,0.013-0.296,0.03-0.438,0.056c-0.988,0.174-1.742,0.675-1.924,2.061l-0.031,0.089
		c-0.563,0.316-1.136,0.634-0.593,1.396c0.003,0.005,0.034-0.01,0.082-0.037c0.144-0.08,0.443-0.272,0.628-0.384
		c10.167,18.346,19.331,37.247,30.029,55.192C155.425,276.022,155.82,274.667,156.445,273.622z"/>
	<path fill="none" d="M101.564,143.242c-3.277,0.254-6.545,0.284-9.821,0.962c-2.762,0.571-2.756,1.567-1.784,3.688
		c2.443,5.329,4.749,10.719,7.122,16.08c4.8,10.847,9.608,21.692,14.825,33.471c10.036-19.428,19.652-38.044,29.731-57.554
		c-10.972,0.895-20.801,1.695-30.629,2.497C107.822,142.262,104.609,141.821,101.564,143.242z"/>
	<path fill="none" d="M261.143,126.534c9.132,0.753,18.255,1.695,27.401,2.157c6.028,0.305,11.974,1.695,19.34,1.336
		c-11.227-17.962-21.964-35.143-32.912-52.662c-0.631,1.035-1.092,1.584-1.331,2.216C268.325,93.63,263,107.677,257.76,121.755
		C256.202,125.94,256.423,126.146,261.143,126.534z"/>
	<path fill="none" d="M266.285,33.989c0.01-1.813-1.132-2.521-2.619-3.035c-12.276-4.229-24.776-7.597-38.022-9.148
		c13.376,9.077,26.752,18.153,40.635,27.575C266.278,43.736,266.263,38.863,266.285,33.989z"/>
	<path fill="none" d="M330.219,133.339c8.219,1.471,16.437,2.956,25.174,4.528c-2.927-9.157-6.205-17.559-10.29-25.61
		c-3.369-6.642-7.109-13.093-10.685-19.628c-0.108-0.579-0.204-0.573-0.29,0.005l-0.345,0.353c-0.133,0.015-0.265,0.029-0.396,0.044
		c0.028,0.232,0.057,0.463,0.084,0.694c-0.916,6.32-1.837,12.642-2.745,18.961c-0.805,5.604-1.634,11.202-2.369,16.813
		C328.146,131.094,327.821,132.909,330.219,133.339z"/>
	<path fill="none" d="M209.428,57.341c12.408-0.008,24.817-0.026,37.226-0.019c0.233,0,0.465-0.006,0.694-0.017
		c1.605-0.078,3.095-0.462,4.376-1.56c-0.002-0.002-0.003-0.004-0.004-0.004c0.001-0.002,0.002-0.002,0.004-0.003
		c-0.003,0-0.004-0.001-0.006-0.001c-0.583-0.684-1.051-1.539-1.768-2.021c-13.761-9.284-27.246-18.979-41.32-27.799
		c-0.724-0.454-1.48-1.102-2.658-0.216c0,10.038,0,20.252,0,30.465C206.846,57.377,208.146,57.342,209.428,57.341z"/>
	<path fill="none" d="M279.763,54.518c-0.066,1.854,1.106,2.414,2.712,2.778c11.538,2.614,23.029,5.43,34.655,8.394
		c-10.638-11.925-23.279-21.04-38.03-27.999C278.505,43.7,279.958,49.082,279.763,54.518z"/>
	<path fill="none" d="M286.595,71.566c10.181,16.85,19.59,32.688,29.972,48.453c1.886-3.893,1.698-7.577,2.196-11.095
		c1.129-7.979,2.143-15.981,2.952-24c0.437-4.313,0.219-4.394-4.108-5.609c-5.465-1.534-10.946-3.012-16.445-4.424
		C296.772,73.764,292.453,72.279,286.595,71.566z"/>
	<path fill="none" d="M363.438,217.082c-1.787,0.041-1.959,1.177-1.731,2.634c0.759,4.869,1.472,9.744,2.208,14.615
		c0.922,6.107,1.848,12.212,2.961,19.559c6.434-12.597,10.292-24.678,13.158-37.441
		C373.943,215.839,368.709,216.959,363.438,217.082z"/>
	<path fill="none" d="M352.84,240.954c-0.4-2.828-0.138-5.832-2.058-9.127c-6.555,14.27-12.872,28.023-19.699,42.887
		c8.305-1.779,15.107-3.798,21.965-5.636c2.854-0.765,3.28-2.111,2.896-4.728C354.797,256.569,353.942,248.744,352.84,240.954z"/>
	<path fill="none" d="M19.179,422.01c-0.849,2.568-2.489,4.805-3.825,7.159C16.689,426.814,18.33,424.578,19.179,422.01z"/>
	<path fill="none" d="M363.414,204.206c5.251-0.489,10.571,0.084,16.359-0.888c-3.438-11.796-7.734-22.931-12.455-34.046
		c-0.947,1.06-1.094,2.174-1.241,3.252c-0.846,6.175-1.617,12.36-2.489,18.534c-0.485,3.422-0.831,6.861-1.979,10.189
		C361.306,202.124,360.729,204.455,363.414,204.206z"/>
	<polygon fill="none" points="387.857,137.693 387.854,137.691 387.857,137.693 	"/>
	<polygon fill="none" points="384.549,128.876 384.546,128.873 384.549,128.876 	"/>
	<path fill="none" d="M330.833,146.524c6.83,15.234,13.219,29.485,19.922,44.434c1.953-4.016,1.621-7.532,2.11-10.868
		c1.273-8.688,2.338-17.407,3.557-26.104c0.201-1.436,0.228-2.607-1.475-2.931C347.272,149.595,339.591,148.165,330.833,146.524z"/>
	<path fill="none" d="M123.422,206.648c1.019,2.266,3.088,1.595,4.807,1.599c18.157,0.046,36.315,0.044,54.473,0.019
		c1.577-0.002,3.376,0.493,4.474-1.29c-9.211-17.66-19.56-34.685-29.205-52.102c-1.279-2.309-2.305-4.842-4.431-6.94
		c-0.909,1.513-1.729,2.721-2.397,4.008c-8.846,17.032-17.673,34.074-26.497,51.118C124.059,204.19,123.397,205.306,123.422,206.648
		z"/>
	<path fill="none" d="M244.041,149.783c-10.38,18.329-20.745,36.665-31.094,55.01c-0.422,0.747-1.154,1.519-0.368,2.475
		c0.964,1.099,2.268,1.015,3.542,1.014c18.429-0.002,36.855-0.004,55.283-0.02c1.43-0.002,2.975,0.255,3.942-1.25
		c0.857-2.255-0.715-3.877-1.6-5.592c-8.56-16.603-17.18-33.174-25.825-49.733c-0.638-1.222-0.863-2.812-2.291-3.412
		C244.652,148.447,244.38,149.186,244.041,149.783z"/>
	<path fill="none" d="M243.978,117.536c0.613-0.853,1.041-1.248,1.229-1.735c6.042-15.675,12.499-31.193,17.863-47.126
		c-1.131-2.188-3.198-1.393-4.896-1.4c-11.548-0.063-23.095-0.056-34.644,0.004c-2.142,0.011-4.342-0.445-6.701,0.477
		c0.261,0.143,0.52,0.253,0.78,0.339c1.819,0.601,3.644,0.007,5.297,0.527c-3.245,1.213-6.834-0.06-10.87,1.419
		C222.359,86.332,233.425,101.614,243.978,117.536z"/>
	<path fill="none" d="M175.13,136.709c-0.854,0-1.708,0.028-2.555,0.101c-2.54,0.215-5.02,0.82-7.28,2.232l0,0h-0.001h0.001
		c1.213,2.454,2.305,4.979,3.658,7.354c9.431,16.543,18.903,33.063,28.412,49.56c0.677,1.173,0.868,2.858,2.663,3.222
		c0.35-0.416,0.775-0.791,1.039-1.256c10.343-18.336,20.682-36.674,30.981-55.033c0.696-1.239,1.729-2.427,1.43-4.046
		c-3.444-2.075-7.488-1.674-11.095-1.789C206.645,136.552,190.884,136.703,175.13,136.709z"/>
	<path fill="none" d="M185.007,350.686c0.002-0.069,0.003-0.14,0.004-0.203c0-0.033,0-0.062,0-0.093c0-0.061,0-0.122-0.001-0.177
		c0-0.023-0.002-0.044-0.003-0.068c-0.001-0.054-0.003-0.109-0.006-0.156c-0.001-0.016-0.003-0.028-0.006-0.045
		c-0.004-0.049-0.009-0.099-0.016-0.14c-0.001-0.01-0.003-0.018-0.006-0.025c-0.008-0.045-0.016-0.088-0.027-0.123
		c-0.001-0.005-0.002-0.007-0.004-0.011c-0.122-0.379-0.432-0.317-1.128-0.18c-8.424-11.561-16.004-23.687-23.91-35.595
		c-1.592-2.396-3.063-4.89-5.385-6.992c-1.698,2.035-2.555,4.23-3.486,6.395c-4.389,10.187-8.798,20.364-13.207,30.541
		c-1.522,3.515-1.377,3.897,2.415,4.436c10.162,1.439,20.314,2.985,30.511,4.121c5.077,0.567,10.113,1.977,15.304,1.29
		c0.143-0.101,0.361-0.173,0.413-0.307c0.031-0.082,0.041-0.153,0.038-0.22c0-0.004,0.001-0.009,0-0.013
		c-0.004-0.064-0.027-0.119-0.064-0.169c-0.001-0.002-0.003-0.005-0.006-0.009c-0.038-0.048-0.094-0.088-0.162-0.12
		c-0.002,0-0.003-0.001-0.004-0.001c-0.07-0.031-0.158-0.055-0.259-0.069l0,0c-0.132-0.583-0.479-0.98-1.034-1.195
		c0.012-0.287,0.021-0.541,0.027-0.762C185.006,350.757,185.006,350.724,185.007,350.686z"/>
	<path fill="none" d="M137.023,72.221c2.13,5.628,4.188,11.282,6.374,16.888c3.657,9.372,7.391,18.713,11.425,28.904
		c10.979-16.292,21.577-32.019,32.347-48.002c-3.813-1.465-7.219-0.222-10.316-1.367c2.692-0.174,5.386-0.348,9.312-0.599
		c-1.719-0.502-2.2-0.765-2.682-0.767c-14.479-0.03-28.957-0.038-43.436-0.042c-0.239,0-0.481-0.003-0.72,0
		c-1.036,0.012-2.038,0.146-2.688,1.232l0,0C136.248,69.772,136.561,70.995,137.023,72.221z"/>
	<path fill="none" d="M260.799,342.834c-4.785-10.907-9.617-21.794-14.497-32.66c-0.5-1.114-0.67-2.545-2.03-3.106
		c-0.845,0.132-1.165,0.828-1.542,1.4c-9.286,14.085-18.56,28.178-27.828,42.273c-0.697,1.061-1.57,2.081-1.147,3.515
		c5.63,1.848,11.151-0.158,16.651-0.733c6.092-0.638,12.201-1.352,18.254-2.226c1.127-0.162,2.28-0.262,3.439-0.366
		c3.477-0.312,7.007-0.661,10.025-2.857l0,0C262.549,346.11,261.521,344.48,260.799,342.834z"/>
	<path fill="none" d="M170.778,126.73c19.025,0.031,38.05,0.031,57.076,0.007c1.586-0.003,3.353,0.449,4.54-1.186
		c0.269-1.449-0.694-2.411-1.403-3.452c-8.27-12.12-16.547-24.235-24.829-36.345c-2.144-3.132-4.316-6.242-6.565-9.495
		c-0.801,0.682-1.296,0.946-1.568,1.358c-10.548,15.889-21.075,31.792-31.604,47.693
		C167.392,127.252,169.217,126.729,170.778,126.73z"/>
	<path fill="none" d="M247.79,362.558c-1.251-1.605-2.925-1.166-4.528-0.895c-1.25,0.214-2.471,0.755-3.718,0.801
		c-10.179,0.374-20.177,2.346-30.281,3.376c-3.937,0.401-4.248,0.784-4.368,4.744c-0.1,3.284-0.082,6.577-0.003,9.863
		c0.012,0.439-0.019,0.892-0.045,1.345c-0.019,0.338-0.036,0.679-0.033,1.016c0.011,1.008,0.209,1.984,1.102,2.813
		c0-0.001,0-0.001,0-0.001c5.865-0.4,11.067-2.896,16.113-5.539c8.904-4.663,17.138-10.43,25.309-16.269
		C247.767,363.505,248.348,363.231,247.79,362.558z"/>
	<path fill="none" d="M265.443,366.222c-6.969,4.801-14.126,9.733-21.848,15.052c1.034,0.537,1.472,0.924,1.643,0.83
		c5.101-2.825,10.869-3.887,16.178-6.16c5.168-2.215,5.204-2.169,5.09-7.8C266.493,367.521,266.808,366.646,265.443,366.222z"/>
	<path fill="none" d="M288.688,294.329c-9.646,1.169-19.301,2.269-28.94,3.483c-3.247,0.409-3.476,0.726-2.137,3.922
		c5.169,12.33,10.458,24.612,16.074,37.781c11.195-16.136,21.812-31.436,32.905-47.425
		C299.932,292.925,294.312,293.647,288.688,294.329z"/>
	<path fill="none" d="M227.357,298.64c-18.423-0.043-36.845-0.035-55.266-0.012c-0.399,0-0.808-0.025-1.214-0.042
		c-1.222-0.05-2.443-0.027-3.444,0.997c-0.001,0-0.001,0-0.001,0s0,0,0.001,0c-0.266,2.45,1.471,4.03,2.624,5.818
		c8.338,12.93,16.649,25.879,25.198,38.669c1.204,1.801,2.328,4.086,5.027,5.297c10.736-16.554,21.391-32.984,32.047-49.414
		C231.086,297.974,229.081,298.643,227.357,298.64z"/>
	<path fill="none" d="M139.263,297.672c-8.539-1.068-17.076-2.148-25.616-3.2c-6.684-0.824-13.371-1.608-21.273-2.557
		c11.234,16.12,21.849,31.351,33.068,47.448c1.771-3.979,2.985-6.613,4.123-9.278c4.007-9.391,8.03-18.775,11.958-28.2
		C142.963,298.425,142.702,298.104,139.263,297.672z"/>
	<path fill="none" d="M194.858,369.812c-0.007-0.038-0.011-0.076-0.02-0.114c-0.021-0.098-0.049-0.194-0.08-0.287
		c-0.002-0.008-0.004-0.016-0.007-0.024c-0.175-0.508-0.501-0.942-0.989-1.29c-0.069-1.352-0.757-1.93-1.927-2.189
		c-0.167-0.037-0.344-0.068-0.531-0.093c-4.527-0.628-9.124-0.741-13.611-1.373c-7.213-1.015-14.522-1.332-21.668-2.918
		c-0.306-0.068-0.628-0.137-0.958-0.191c-0.439-0.073-0.895-0.121-1.344-0.11c-1.012,0.028-2.002,0.363-2.763,1.41
		c0.001,0,0.001,0,0.001,0c10.03,8.168,20.923,14.979,32.676,20.351c3.108,1.421,6.395,2.69,9.963,2.603
		c0.853-0.491,1.286-1.255,1.291-2.214c0.022-4.333,0.026-8.666,0.019-12.997c-0.001-0.118-0.006-0.233-0.018-0.347
		C194.885,369.953,194.87,369.884,194.858,369.812z"/>
	<path fill="none" d="M132.477,371.825c-0.152,2.029,1.012,3.204,2.618,3.622c7,1.819,13.595,5.005,21.63,6.506
		c-8.365-5.73-15.979-10.948-24.219-16.595C132.506,368.192,132.612,370.018,132.477,371.825z"/>
	<path fill="none" d="M386.9,434.005c-0.026-0.378-0.003-0.768-0.015-1.15C386.897,433.237,386.873,433.627,386.9,434.005z"/>
	<path fill="none" d="M147.806,56.052c-0.089,0.161-0.227,0.313-0.25,0.483c-0.021,0.148,0.055,0.426,0.144,0.452
		c0.492,0.146,1.002,0.322,1.505,0.323c13.733,0.021,27.468,0.023,41.201,0.029c1.263,0,2.538,0.019,3.373-1.171
		c0.978-0.692,1.152-1.723,1.152-2.824c0-8.72,0-17.44-0.002-26.161c0-0.14-0.002-0.279-0.009-0.417
		c-0.009-0.167-0.025-0.33-0.049-0.489c-0.053-0.368-0.15-0.717-0.332-1.024c-0.195-0.331-0.486-0.617-0.915-0.839
		c0,0.001,0,0.001,0,0.001c-0.354,0.077-0.766,0.066-1.057,0.248c-14.963,9.376-29.622,19.206-43.973,29.497
		C147.926,54.641,147.766,55.295,147.806,56.052z"/>
	<path fill="none" d="M117.108,356.187c-9.343-4.057-18.703-8.068-28.059-12.097c8.049,10.212,18.265,17.315,30.065,23.235
		c0.973-2.84,0.354-4.874,0.586-6.854C119.954,358.302,118.923,356.976,117.108,356.187z"/>
	<path fill="none" d="M329.989,288.108c-1.258,0.324-2.509,0.781-2.319,2.502c0.84,7.591,1.679,15.18,2.604,23.542
		c6.879-6.312,20.082-25.88,21.489-31.593C344.418,284.428,337.198,286.249,329.989,288.108z"/>
	<path fill="none" d="M318.749,308.057c-0.044-0.465-0.051-0.941-0.057-1.418c-0.001-0.159-0.003-0.318-0.007-0.479
		c-0.003-0.198-0.008-0.397-0.018-0.594c-0.064-1.384-0.334-2.717-1.661-3.738l0.084-0.387c-0.02-0.087-0.024-0.191-0.026-0.299
		c-0.006-0.325,0.012-0.68-0.268-0.67c-0.123,0.003-0.305,0.079-0.574,0.263h0.001c-9.339,12.341-17.861,25.235-26.441,38.107
		c9.598-3.161,18.492-7.339,27.355-11.59c1.169-0.171,2.196-0.628,2.208-1.963c0.047-5.454,0.832-10.991-0.452-16.325
		C318.823,308.669,318.777,308.365,318.749,308.057z"/>
	<path fill="none" d="M343.272,217.768c-0.685-1.584-2.217-2.061-3.682-1.584c-4.655,1.514-9.428,0.97-14.125,0.829
		c-7.854-0.234-15.616,0.709-23.416,1.188c-0.119,0.009-0.236,0.019-0.351,0.031c-0.805,0.101-1.504,0.384-2.002,1.104
		c0,0,0,0,0.001,0l-0.093,0.037c-0.498,0.018-1.076-0.154-1.344,0.438c-0.007,0.016,0.019,0.047,0.065,0.086
		c0.139,0.122,0.464,0.328,0.653,0.472c7.086,15.351,14.172,30.7,21.713,47.035c1.948-4.062,3.451-7.116,4.888-10.202
		c5.546-11.915,11.071-23.841,16.605-35.764C343.982,220.643,343.887,219.192,343.272,217.768z"/>
	<path fill="none" d="M279.231,359.585c-0.007,2.615-0.002,5.23-0.002,8.49c12.407-6.301,22.789-14.137,31.55-24.26
		c-9.692,4.172-19.383,8.345-29.077,12.513C280.257,356.95,279.234,357.884,279.231,359.585z"/>
	<path fill="none" d="M47.819,190.517c0.293-0.006,0.588-0.012,0.882-0.018c6.4-14.42,12.8-28.841,19.303-43.492
		c-3.151-0.457-5.579,0.643-8.078,0.991c-5.233,0.729-10.401,1.938-15.618,2.811c-1.732,0.29-2.827,0.85-2.368,2.771
		c1.82,7.605,2.73,15.34,3.568,23.102C46.01,181.322,47.031,185.907,47.819,190.517z"/>
	<path fill="none" d="M24.373,154.7c2.312-4.649,4.722-9.259,4.617-14.701C26.821,144.693,25.008,149.521,24.373,154.7z"/>
	<path fill="none" d="M70.704,129.69c-1.771-12.054-3.425-24.124-5.118-36.189c-0.383-0.057-0.764-0.113-1.146-0.17
		c-8.268,13.997-15.841,28.315-20.908,44.421c8.803-1.567,16.688-3.059,24.606-4.336C70.587,133.021,71.035,131.942,70.704,129.69z"
		/>
	<path fill="none" d="M77.344,88.31l-0.194,0.347c-0.025,1.806-0.25,3.634-0.036,5.409c0.084,0.686,0.148,1.375,0.213,2.067
		c0.277,2.996,0.544,6.006,2.217,8.687v-0.001c0.001,0.001,0.001,0.001,0.002,0.001c0.301,0.522,0.462,1.028-0.157,1.451
		c-0.037,0.554-0.066,1.104-0.083,1.652c-0.009,0.274-0.015,0.549-0.017,0.822c-0.029,3.552,0.493,7.009,2.309,10.242
		c0-0.001,0-0.001,0-0.001c1.324,0.243,1.979-0.598,2.574-1.567c9.341-15.197,18.688-30.393,28.032-45.589
		c-0.599-1.18-1.688-1.416-2.786-1.148c-10.018,2.439-20.021,4.938-30.033,7.404c-1.476,0.362-3.071,0.881-3.174,2.532
		c-0.021,0.325-0.056,0.654-0.097,0.984c-0.248,1.984-0.718,4.048,0.481,5.835C76.796,87.737,77.042,88.027,77.344,88.31z"/>
	<path fill="none" d="M109.119,337.505c-8.456-12.037-16.926-24.093-25.933-36.911c-1.741,8.253-1.402,15.597-2.615,22.753
		c-0.387,2.285,1.037,3.229,2.738,4.18c7.066,3.942,14.589,6.856,22.048,9.916C106.449,337.892,107.544,338.921,109.119,337.505z"/>
	<path fill="none" d="M132.751,48.76c2.458-0.431,3.856-1.981,5.522-3.033c8.185-5.168,15.694-11.354,24.214-16.016
		c0.175-0.023,0.341-0.062,0.496-0.115c0.463-0.157,0.834-0.451,1.091-0.919c0.002-0.006,0.006-0.008,0.009-0.012
		c0.015-0.002,0.028-0.004,0.043-0.004c0.117-0.005,0.233-0.012,0.345-0.025c0.018-0.002,0.034-0.006,0.052-0.009
		c0.106-0.015,0.212-0.031,0.312-0.056c0.017-0.005,0.031-0.011,0.048-0.015c0.1-0.025,0.194-0.055,0.285-0.092
		c0.02-0.007,0.036-0.02,0.056-0.027c0.085-0.038,0.167-0.078,0.243-0.126c0.021-0.014,0.04-0.033,0.062-0.048
		c0.068-0.048,0.138-0.099,0.2-0.159c0.027-0.027,0.05-0.063,0.077-0.094c0.048-0.055,0.099-0.106,0.141-0.172
		c0.064-0.096,0.121-0.204,0.169-0.322c0.002-0.003,0.002-0.004,0.004-0.006c0.049-0.122,0.091-0.256,0.123-0.403
		c0.787-0.893,1.665-1.64,2.9-1.818c0.173-0.025,0.333-0.065,0.485-0.119c0.452-0.161,0.809-0.464,1.051-0.93
		c0.139-0.003,0.273-0.014,0.401-0.029c0.004-0.001,0.007-0.001,0.009-0.001c0.126-0.017,0.248-0.04,0.363-0.069
		c0.007-0.002,0.013-0.004,0.02-0.006c0.11-0.029,0.217-0.064,0.317-0.108c0.013-0.007,0.025-0.015,0.038-0.021
		c0.091-0.042,0.18-0.088,0.261-0.145c0.02-0.012,0.033-0.029,0.052-0.042c0.073-0.056,0.143-0.112,0.207-0.179
		c0.021-0.023,0.037-0.053,0.058-0.076c0.054-0.064,0.109-0.129,0.154-0.205c0.028-0.048,0.049-0.104,0.073-0.156
		c0.031-0.063,0.064-0.121,0.09-0.191c0.047-0.127,0.084-0.267,0.11-0.419c0.661-0.975,0.607-1.752-0.766-1.49
		c-3.217,0.61-6.413,1.335-9.595,2.099c-9.96,2.39-19.861,4.979-29.352,8.914c-0.123,0.077-0.355,0.161-0.352,0.234
		c0.013,0.253,0.106,0.504,0.169,0.755C132.751,38.284,132.056,43.471,132.751,48.76z"/>
	<path fill="none" d="M142.753,125.918c-1.382-5.605-17.375-46.071-18.877-47.991c-6.096,8.346-29.387,46.985-31.392,52.388
		C109.618,128.817,126.139,127.371,142.753,125.918z"/>
	<path fill="none" d="M81.808,66.038C81.808,66.037,81.808,66.037,81.808,66.038c1.047-0.323,2.078-0.7,3.14-0.961
		c10.449-2.563,20.899-5.126,31.36-7.638c1.468-0.351,3.103-0.507,3.134-2.399c0.092-5.528,0.032-11.061,0.032-16.849
		c-7.039,2.609-12.601,7.174-18.859,10.466c-0.155-0.01-0.307-0.013-0.454-0.012c-0.059,0.001-0.114,0.006-0.171,0.009
		c-0.086,0.003-0.174,0.005-0.258,0.014c-0.075,0.006-0.146,0.018-0.22,0.027c-0.061,0.008-0.125,0.015-0.184,0.024
		c-0.083,0.014-0.161,0.034-0.239,0.052c-0.047,0.012-0.098,0.02-0.144,0.032c-0.088,0.023-0.169,0.05-0.253,0.079
		c-0.035,0.012-0.072,0.021-0.106,0.034c-0.089,0.033-0.176,0.07-0.26,0.109c-0.025,0.012-0.052,0.021-0.077,0.032
		c-0.09,0.044-0.175,0.092-0.26,0.142c-0.018,0.01-0.038,0.02-0.056,0.03c-0.09,0.054-0.176,0.112-0.259,0.174
		c-0.012,0.009-0.025,0.016-0.036,0.025c-0.088,0.066-0.172,0.136-0.254,0.209c-0.007,0.007-0.015,0.012-0.021,0.018
		c-0.086,0.078-0.167,0.159-0.247,0.245c-0.003,0.003-0.005,0.006-0.008,0.008c-0.082,0.089-0.16,0.183-0.234,0.279
		c-0.001,0.001-0.001,0.001-0.001,0.001c-0.38,0.491-0.678,1.09-0.906,1.786h-0.001c-0.619,0.115-1.012,0.48-1.188,1.085
		c-0.164,0.031-0.326,0.063-0.489,0.096c-0.011,0.002-0.021,0.004-0.031,0.006c-0.15,0.032-0.301,0.065-0.447,0.1
		c-0.027,0.007-0.053,0.014-0.08,0.02c-0.132,0.032-0.264,0.065-0.391,0.1c-0.038,0.01-0.074,0.022-0.112,0.032
		c-0.117,0.034-0.232,0.067-0.348,0.104c-0.042,0.014-0.082,0.028-0.121,0.043c-0.109,0.036-0.217,0.073-0.322,0.113
		c-0.044,0.017-0.086,0.036-0.13,0.054c-0.098,0.04-0.198,0.08-0.293,0.125c-0.045,0.021-0.087,0.045-0.131,0.065
		c-0.092,0.046-0.185,0.09-0.272,0.141c-0.043,0.023-0.084,0.052-0.127,0.078c-0.084,0.051-0.169,0.101-0.249,0.155
		c-0.042,0.027-0.077,0.059-0.117,0.088c-0.079,0.059-0.158,0.117-0.234,0.181c-0.033,0.028-0.064,0.063-0.098,0.094
		c-0.075,0.066-0.15,0.136-0.222,0.209c-0.027,0.031-0.053,0.064-0.079,0.096c-0.071,0.08-0.143,0.161-0.207,0.248
		c-0.02,0.026-0.034,0.055-0.053,0.08c-0.068,0.099-0.138,0.199-0.198,0.306c-0.007,0.013-0.013,0.028-0.019,0.041
		c-0.295,0.534-0.494,1.18-0.566,1.977v-0.101c-0.17,0.021-0.322,0.061-0.458,0.117c-0.132,0.057-0.247,0.13-0.348,0.22
		c-0.002,0.002-0.006,0.003-0.008,0.006c-0.207,0.186-0.346,0.443-0.42,0.771c-3.898,0.425-5.591,3.489-7.399,6.35
		c-0.059,0.094-0.06,0.195-0.019,0.299C80.912,65.581,81.405,65.898,81.808,66.038z"/>
	<path fill="none" d="M73.635,205.951c0.887,1.14,2.145,1.213,3.435,1.213c6.707,0.004,13.412,0.013,20.118,0.021
		c1.104,0.003,2.176-0.09,3.022-0.924c0.272-1.148-0.203-2.137-0.64-3.149c-6.566-15.282-13.118-30.571-19.701-45.848
		c-0.245-0.566-0.416-1.413-1.766-1.214c-7.815,15.752-14.482,32.226-21.998,48.671C62.344,205.527,68.065,204.744,73.635,205.951z"
		/>
	<path fill="none" d="M48.748,232.377c-0.367,0.127-0.734,0.256-1.102,0.384c-0.232,1.634-0.465,3.267-0.694,4.898
		c-1.246,8.9-2.515,17.796-3.713,26.701c-0.238,1.773-0.688,3.753,1.854,4.489c7.327,2.122,14.718,3.94,22.836,5.5
		C61.328,259.905,55.039,246.142,48.748,232.377z"/>
	<path fill="none" d="M55.934,218.196c7.614,16.6,14.906,32.498,22.66,49.407c7.503-16.554,14.536-32.07,21.794-48.084
		C85.258,219.195,70.976,217.779,55.934,218.196z"/>
	<path fill="none" d="M64.737,286.841c-5.66-1.25-11.182-3.272-18.028-3.68c6.871,11.01,12.769,21.709,22.178,31.37
		c0.709-7.233,1.236-13.21,1.896-19.171C71.542,288.493,71.624,288.362,64.737,286.841z"/>
	<path fill="none" d="M31.035,170.519c-1.29,3.367-2.681,6.701-3.85,10.11c-2.299,6.714-5.115,13.253-6.809,20.175
		c-0.345,1.408-0.588,2.731,1.313,2.769c5.206,0.104,10.416,0.036,15.943,0.036c-1.823-11.11-3.612-22.019-5.402-32.927
		C31.832,170.627,31.434,170.572,31.035,170.519z"/>
	<path fill="none" d="M35.806,216.939c-5.574-0.282-11.141-1.227-16.918-0.449c3.172,12.621,6.872,24.728,13.535,36.029
		c1.269-8.234,2.536-16.47,3.807-24.703c0.419-2.702,0.874-5.399,1.257-8.106C37.675,218.376,37.617,217.032,35.806,216.939z"/>
	<path fill="#4171A8" d="M386.981,432.888c-0.025-0.939-0.242-1.773-1.176-2.214c-0.043-0.904-0.286-1.697-1.158-2.147
		c-0.123-0.347-0.248-0.694-0.371-1.041c-0.871-1.806-1.671-3.649-2.622-5.412c-9.902-18.35-19.771-36.72-29.784-55.01
		c-3.681-6.724-7.116-13.597-11.406-19.975c0.029-0.356,0.016-0.712-0.043-1.064c5.257-5.094,10.291-10.381,14.362-16.505
		c-0.002,0.001-0.004,0.001-0.005,0.001c7.904-9.055,14.572-18.931,19.787-29.772c4.303-6.884,8.058-14.018,10.035-21.962
		c1.465-1.014,1.682-2.711,2.228-4.206c11.633-31.925,15.037-64.751,10.497-98.386c-0.578-4.283-0.697-8.757-2.844-12.725
		c0-0.001,0.126-0.344,0.126-0.344c-0.364-4.695-1.299-9.246-3.407-13.501c0-0.001,0.089,0.104,0.089,0.104
		c-0.568-3.84-1.261-7.642-3.377-11.004c0.004,0.003,0.008,0.005,0.013,0.007c-0.032-1.235-0.049-2.476-1.144-3.337
		c-0.024-0.891-0.079-1.767-0.972-2.271c0.015-1.233-0.141-2.404-1.192-3.238c0.061-1.018-0.246-1.854-1.192-2.373
		c0.136-1.34-0.381-2.506-0.953-3.67c-3.133-6.379-5.97-12.923-9.439-19.113c-6.825-12.172-14.789-23.524-23.995-34.114
		c-9.423-10.84-19.778-20.59-31.099-29.287c-23.004-17.672-48.728-29.674-77.097-35.952c-24.306-5.378-48.735-5.625-73.227-1.697
		c-18.332,2.941-36.042,8.332-52.664,16.492c-15.467,7.593-29.896,17.044-42.943,28.464C34.938,80.09,11.743,120.358,3.115,168.985
		C1.512,178.02,1.384,187.169,0,196.197c1.422,5.454,0.765,10.956,0.389,16.451c0.768,6.34,0.479,12.78,1.762,19.076
		c1.362,6.697,1.508,13.556,3.271,20.245c1.413,5.364,3.793,10.396,5.023,15.715c1.968,8.501,6.038,16.085,9.42,23.941
		c5.583,12.975,13.621,24.575,22.061,35.82c1.726,2.3,2.672,5.734,6.136,6.548c2.232,0.845,4.019,2.104,4.349,4.708
		c-0.004,0.002-0.042,0.021-0.042,0.021c1.149,3.154,3.479,5.434,5.864,7.733c-2.787,6.288-6.418,12.01-9.749,17.909
		c-2.623,4.644-5.456,9.26-7.024,14.448c-0.002-0.002-0.165-0.118-0.165-0.118c-2.521,0.879-2.316,3.56-3.251,5.361
		c-2.897,5.588-7.13,10.503-8.68,16.781c-0.002-0.001-0.095-0.073-0.095-0.073c-0.466,0.266-1.166,0.414-1.358,0.812
		c-2.766,5.687-5.464,11.408-8.179,17.12c-0.648,0.579-1.626,1.047-1.871,1.764c-1.28,3.739-3.422,7.031-5.248,10.479
		c-1.469,2.77-2.336,5.597-1.911,8.745c0.231,0.268,0.306,0.574,0.225,0.919c0.655,3.227,2.758,4.348,5.896,4.343
		c24.035-0.031,48.069-0.008,72.104-0.004c1.835,0,3.713,0.096,4.731-1.911c0.596-0.138,0.965-0.507,1.113-1.098
		c1.381-0.685,2.067-1.825,2.191-3.334c0.93-0.46,1.03-1.357,1.161-2.239c5.17-7.897,9.224-16.424,13.666-24.717
		c3.594-6.707,7.775-13.134,10.478-20.308c0.54-0.047,1.212-0.329,1.602-0.109c7.704,4.325,16.255,6.229,24.594,8.759
		c8.368,2.537,16.849,4.149,25.599,4.83c7.102,0.551,14.182,1.526,21.312,1.721c17.594,0.479,34.933-1.654,51.945-5.979
		c8.911-2.265,17.869-4.659,26.007-9.225c-0.013,0.02-0.026,0.04-0.038,0.061c1.757-0.358,2.875-0.073,3.823,1.873
		c1.206,2.474,1.797,5.455,4.409,7.094c-0.006,0.002,0.064-0.064,0.064-0.064c4.633,9.23,9.374,18.402,14.7,27.259h-0.001
		c1.256,3.872,3.943,7.001,5.563,10.677c2.191,4.974,5.866,6.878,11.331,6.805c16.672-0.222,33.349-0.073,50.022-0.077
		c6.047-0.002,12.102,0.169,18.138-0.099c7.489-0.334,9.806-5.525,5.576-11.998C386.935,432.871,386.956,432.882,386.981,432.888z
		 M387.857,137.693L387.857,137.693c-0.001-0.001-0.002-0.002-0.003-0.002C387.855,137.691,387.856,137.692,387.857,137.693z
		 M384.549,128.876L384.549,128.876c-0.001,0-0.002-0.002-0.003-0.003C384.547,128.874,384.548,128.876,384.549,128.876z
		 M15.354,429.169c1.336-2.354,2.977-4.591,3.825-7.159C18.33,424.578,16.689,426.814,15.354,429.169z M353.048,269.078
		c-6.857,1.838-13.66,3.856-21.965,5.636c6.827-14.863,13.145-28.617,19.699-42.887c1.92,3.295,1.657,6.299,2.058,9.127
		c1.103,7.79,1.957,15.615,3.104,23.396C356.328,266.967,355.901,268.313,353.048,269.078z M366.876,253.89
		c-1.113-7.347-2.039-13.451-2.961-19.559c-0.736-4.871-1.449-9.746-2.208-14.615c-0.228-1.457-0.056-2.593,1.731-2.634
		c5.271-0.123,10.505-1.243,16.596-0.634C377.168,229.212,373.31,241.293,366.876,253.89z M361.609,201.248
		c1.147-3.328,1.493-6.768,1.979-10.189c0.872-6.174,1.644-12.359,2.489-18.534c0.147-1.078,0.294-2.192,1.241-3.252
		c4.721,11.115,9.017,22.25,12.455,34.046c-5.788,0.972-11.108,0.398-16.359,0.888C360.729,204.455,361.306,202.124,361.609,201.248
		z M356.422,153.985c-1.219,8.697-2.283,17.416-3.557,26.104c-0.489,3.336-0.157,6.853-2.11,10.868
		c-6.703-14.948-13.092-29.199-19.922-44.434c8.758,1.641,16.439,3.07,24.114,4.53C356.649,151.378,356.623,152.55,356.422,153.985z
		 M262.124,348.073c-3.019,2.196-6.549,2.546-10.025,2.857c-1.159,0.104-2.313,0.204-3.439,0.366
		c-6.053,0.874-12.162,1.588-18.254,2.226c-5.5,0.575-11.021,2.581-16.651,0.733c-0.423-1.434,0.45-2.454,1.147-3.515
		c9.269-14.096,18.542-28.188,27.828-42.273c0.377-0.572,0.697-1.269,1.542-1.4c1.36,0.562,1.53,1.992,2.03,3.106
		c4.88,10.866,9.712,21.753,14.497,32.66C261.521,344.48,262.549,346.11,262.124,348.073L262.124,348.073z M186.012,352.753
		L186.012,352.753c0.101,0.015,0.188,0.038,0.259,0.069c0.001,0,0.002,0.001,0.004,0.001c0.068,0.032,0.124,0.072,0.162,0.12
		c0.003,0.004,0.005,0.007,0.006,0.009c0.037,0.05,0.061,0.104,0.064,0.169c0.001,0.004,0,0.009,0,0.013
		c0.003,0.066-0.007,0.138-0.038,0.22c-0.052,0.134-0.271,0.206-0.413,0.307c-5.19,0.687-10.227-0.723-15.304-1.29
		c-10.196-1.136-20.349-2.682-30.511-4.121c-3.792-0.538-3.938-0.921-2.415-4.436c4.409-10.177,8.818-20.354,13.207-30.541
		c0.932-2.164,1.788-4.359,3.486-6.395c2.321,2.103,3.793,4.597,5.385,6.992c7.906,11.908,15.486,24.034,23.91,35.595
		c0.696-0.138,1.006-0.199,1.128,0.18c0.002,0.004,0.003,0.006,0.004,0.011c0.012,0.035,0.02,0.078,0.027,0.123
		c0.003,0.008,0.005,0.016,0.006,0.025c0.007,0.041,0.012,0.091,0.016,0.14c0.003,0.017,0.005,0.029,0.006,0.045
		c0.003,0.047,0.005,0.103,0.006,0.156c0.001,0.024,0.003,0.045,0.003,0.068c0.001,0.055,0.001,0.116,0.001,0.177
		c0,0.031,0,0.06,0,0.093c-0.001,0.063-0.002,0.134-0.004,0.203c-0.001,0.038-0.001,0.071-0.002,0.11
		c-0.006,0.221-0.016,0.475-0.027,0.762C185.533,351.772,185.88,352.17,186.012,352.753z M136.639,68.469
		c0.65-1.087,1.652-1.221,2.688-1.232c0.238-0.003,0.48,0,0.72,0c14.479,0.004,28.957,0.012,43.436,0.042
		c0.481,0.002,0.963,0.265,2.682,0.767c-3.926,0.251-6.619,0.425-9.312,0.599c3.098,1.146,6.504-0.098,10.316,1.367
		c-10.77,15.983-21.368,31.71-32.347,48.002c-4.034-10.191-7.768-19.532-11.425-28.904c-2.187-5.605-4.244-11.26-6.374-16.888
		C136.561,70.995,136.248,69.772,136.639,68.469L136.639,68.469z M217.61,68.094c-0.261-0.086-0.52-0.196-0.78-0.339
		c2.359-0.922,4.56-0.466,6.701-0.477c11.549-0.06,23.096-0.067,34.644-0.004c1.697,0.008,3.765-0.788,4.896,1.4
		c-5.364,15.933-11.821,31.451-17.863,47.126c-0.188,0.487-0.616,0.883-1.229,1.735c-10.553-15.922-21.618-31.204-31.94-47.496
		c4.036-1.479,7.625-0.206,10.87-1.419C221.254,68.101,219.43,68.694,217.61,68.094z M247.922,151.687
		c8.646,16.56,17.266,33.131,25.825,49.733c0.885,1.715,2.457,3.337,1.6,5.592c-0.968,1.505-2.513,1.248-3.942,1.25
		c-18.428,0.016-36.854,0.018-55.283,0.02c-1.274,0.001-2.578,0.085-3.542-1.014c-0.786-0.956-0.054-1.728,0.368-2.475
		c10.349-18.345,20.714-36.681,31.094-55.01c0.339-0.598,0.611-1.336,1.59-1.509C247.059,148.875,247.284,150.465,247.922,151.687z
		 M232.049,142.889c-10.3,18.359-20.639,36.697-30.981,55.033c-0.264,0.465-0.689,0.84-1.039,1.256
		c-1.795-0.363-1.986-2.049-2.663-3.222c-9.509-16.497-18.981-33.017-28.412-49.56c-1.354-2.375-2.445-4.9-3.658-7.354h-0.001h0.001
		l0,0c2.261-1.412,4.74-2.018,7.28-2.232c0.847-0.072,1.7-0.101,2.555-0.101c15.754-0.006,31.515-0.157,47.254,0.345
		c3.606,0.115,7.65-0.286,11.095,1.789C233.778,140.462,232.745,141.649,232.049,142.889z M151.142,151.941
		c0.669-1.287,1.488-2.495,2.397-4.008c2.126,2.099,3.151,4.632,4.431,6.94c9.646,17.417,19.994,34.441,29.205,52.102
		c-1.098,1.783-2.896,1.288-4.474,1.29c-18.157,0.025-36.315,0.027-54.473-0.019c-1.719-0.004-3.788,0.667-4.807-1.599
		c-0.024-1.343,0.637-2.458,1.223-3.589C133.469,186.016,142.296,168.974,151.142,151.941z M111.906,197.442
		c-5.217-11.778-10.025-22.624-14.825-33.471c-2.373-5.361-4.679-10.751-7.122-16.08c-0.972-2.12-0.978-3.116,1.784-3.688
		c3.276-0.678,6.544-0.708,9.821-0.962c3.045-1.421,6.258-0.98,9.444-0.856c9.828-0.802,19.657-1.603,30.629-2.497
		C131.559,159.398,121.942,178.015,111.906,197.442z M141.702,284.324c-18.108-1.451-34.979-4.152-52.62-6.029
		c6.973-16.986,14.666-33.099,22.539-50.375C121.772,246.956,131.49,265.176,141.702,284.324z M123.439,221.396
		c-0.185,0.111-0.484,0.304-0.628,0.384c-0.048,0.027-0.079,0.042-0.082,0.037c-0.543-0.763,0.03-1.08,0.593-1.396l0.031-0.089
		c0.182-1.386,0.936-1.887,1.924-2.061c0.142-0.025,0.288-0.043,0.438-0.056c0.276-0.023,0.565-0.03,0.862-0.03
		c10.459,0.026,20.984-0.68,31.356,0.278c8.072,0.746,16.086,0.456,24.116,0.835c1.752,0.083,3.731-0.635,5.109,1.166
		c0.275,1.191-0.332,2.124-0.896,3.073c-9.934,16.698-19.853,33.404-29.818,50.084c-0.625,1.045-1.021,2.4-2.977,2.967
		C142.771,258.644,133.606,239.742,123.439,221.396z M165.301,285.854c11.083-18.753,22.163-37.506,33.261-56.248
		c0.168-0.282,0.553-0.437,1.298-0.999c3.528,5.716,7.161,11.313,10.506,17.078c6.886,11.879,13.876,23.692,21.152,35.337
		c0.945,1.514,2.32,2.916,1.902,4.974c-0.135,0.327-0.299,0.588-0.486,0.794c-0.499,0.551-1.162,0.718-1.872,0.767
		c-0.444,0.03-0.905,0.014-1.356,0.014c-20.269,0.011-40.536,0.013-60.804,0.009C167.439,287.578,165.905,287.671,165.301,285.854z
		 M245.11,277.107c-4.099-5.681-7.332-11.731-10.849-17.599c-5.63-9.395-10.806-19.063-16.938-28.156
		c-0.141-0.04-0.269-0.088-0.385-0.145c-0.041-0.021-0.075-0.046-0.113-0.069c-0.067-0.038-0.138-0.075-0.194-0.119
		c-0.058-0.044-0.103-0.094-0.152-0.142c-0.029-0.03-0.064-0.057-0.092-0.088c-0.052-0.061-0.093-0.128-0.134-0.194
		c-0.016-0.025-0.035-0.048-0.05-0.073c-0.042-0.076-0.074-0.159-0.105-0.24c-0.008-0.021-0.018-0.04-0.025-0.06
		c-0.031-0.094-0.055-0.191-0.074-0.292c-0.003-0.013-0.007-0.024-0.01-0.036c-0.02-0.11-0.033-0.223-0.042-0.338
		c0-0.005-0.002-0.011-0.002-0.015c-0.008-0.121-0.012-0.247-0.01-0.374c-0.003-0.001-0.006-0.002-0.008-0.004
		c-1.545-0.603-2.3-1.689-2.081-3.37c0-0.003,0-0.005,0-0.007c-0.002,0-0.004-0.002-0.007-0.002
		c-1.03-0.364-1.222-1.196-1.172-2.159c0.001-0.007,0-0.013,0.001-0.019c-0.003-0.001-0.006-0.003-0.007-0.003
		c-0.43-0.273-0.994-0.507-1.419-0.78c-0.002-0.002-0.007-0.004-0.009-0.005c-0.063-0.041-0.121-0.084-0.178-0.126
		c-0.011-0.01-0.023-0.018-0.035-0.027c-0.049-0.038-0.091-0.079-0.132-0.12c-0.014-0.014-0.03-0.026-0.043-0.041
		c-0.035-0.039-0.063-0.079-0.091-0.121c-0.012-0.017-0.026-0.033-0.038-0.053c-0.021-0.039-0.035-0.081-0.05-0.124
		c-0.006-0.021-0.019-0.042-0.022-0.063c-0.01-0.042-0.009-0.088-0.009-0.132c0-0.025-0.005-0.049-0.002-0.075
		c0.004-0.045,0.021-0.095,0.036-0.142c0.009-0.028,0.012-0.055,0.024-0.085c0.021-0.05,0.056-0.104,0.087-0.155
		c0.019-0.032,0.031-0.062,0.054-0.095c0.039-0.057,0.094-0.115,0.145-0.174c0.029-0.035,0.053-0.067,0.087-0.103
		c0.063-0.065,0.143-0.136,0.22-0.205c0.038-0.033,0.066-0.064,0.108-0.1c0.127-0.107,0.271-0.218,0.435-0.335
		c0.287,0.073,0.546,0.017,0.776-0.17l0,0c0.331-0.229,0.642-0.537,0.983-0.733c0.113-0.065,0.23-0.119,0.354-0.152
		c0.689-0.19,1.446-0.228,2.169-0.196c18.104,0.801,36.144-1.544,54.24-1.107c1.098,0.026,2.205-0.072,3.293,0.043
		c2.799,0.297,2.979,0.784,1.662,4.29c0.005-0.003,0.01-0.008,0.016-0.011c0.034,0.966-0.154,1.811-1.155,2.212l-0.001,0.001
		c0,0.001,0,0.003,0,0.006c0.072,0.963-0.131,1.781-1.136,2.174c0.098,0.981-0.093,1.813-1.144,2.195l0,0
		c-0.298,0.423-0.595,0.847-0.893,1.271l-0.1,0.438c-0.043,0.36-0.138,0.691-0.3,0.982c-0.039,0.071-0.083,0.138-0.132,0.205
		c-0.001,0.002-0.001,0.003-0.003,0.004c-0.094,0.13-0.207,0.247-0.336,0.355c-0.007,0.004-0.012,0.011-0.019,0.016
		c-0.065,0.054-0.138,0.104-0.213,0.151c-0.003,0.002-0.006,0.004-0.01,0.007l0,0c-0.002,0.071-0.007,0.142-0.012,0.213
		c-0.054,0.821-0.299,1.545-1.112,1.973c0,0.017-0.003,0.032-0.003,0.049c-0.001,0.098-0.003,0.194-0.01,0.289
		c0,0.006-0.001,0.01-0.001,0.017c-0.057,0.771-0.313,1.442-1.104,1.84c0,0.006,0,0.012,0,0.02c0,0.111-0.002,0.223-0.009,0.331
		c-0.001,0.019-0.004,0.038-0.006,0.057c-0.007,0.096-0.017,0.19-0.03,0.282c-0.005,0.027-0.012,0.053-0.017,0.079
		c-0.016,0.082-0.031,0.165-0.053,0.243c-0.011,0.033-0.025,0.063-0.036,0.096c-0.022,0.069-0.046,0.138-0.076,0.203
		c-0.018,0.039-0.043,0.073-0.063,0.11c-0.03,0.055-0.059,0.112-0.097,0.163c-0.03,0.042-0.069,0.08-0.104,0.119
		c-0.036,0.042-0.067,0.086-0.11,0.124c-0.052,0.048-0.113,0.087-0.173,0.129c-0.036,0.027-0.065,0.056-0.105,0.08
		c-0.104,0.063-0.221,0.121-0.349,0.17c-5.972,9.417-10.374,19.692-15.978,29.312C248.788,271.249,247.561,274.337,245.11,277.107z
		 M286.768,229.176c0.468,0.029,0.935,0.061,1.402,0.09c5.335,11.609,10.689,23.21,15.993,34.836
		c1.745,3.826,3.36,7.714,5.022,11.58c0.721,1.674,0.488,2.765-1.635,3.01c-15.809,1.825-31.611,3.697-47.418,5.534
		c-0.527,0.061-1.079-0.104-2.342-0.241C267.549,265.528,277.158,247.352,286.768,229.176z M287.29,196.741
		c-10.37-19.372-20.257-37.826-29.472-56.635l0,0c2.03-1.272,4.189-1.681,6.349-1.681c0.541,0.001,1.08,0.026,1.619,0.07
		c1.614,0.134,3.211,0.436,4.735,0.711c5.598,1.019,11.266,1.057,16.834,1.551c6.314,0.56,12.638,1.715,19.066,1.502
		c4.12-0.139,4.802,1.545,2.814,5.375c-4.699,10.539-9.396,21.081-14.102,31.618C292.678,184.753,290.205,190.247,287.29,196.741z
		 M316.186,164.7c1.229-2.86,2.461-5.718,3.676-8.538c0.94,0.078,1.347,0.598,1.664,1.294c6.525,14.354,13.074,28.695,19.575,43.06
		c0.668,1.477,1.694,2.877,1.508,4.646c-3.601,1.332-7.379,1.884-11.158,1.946c-9.336,0.155-18.676,0.101-28.012,0.049
		c-1.707-0.011-3.78,0.704-4.812-1.558C304.479,191.966,310.332,178.332,316.186,164.7z M328.356,129.499
		c0.735-5.611,1.564-11.21,2.369-16.813c0.908-6.319,1.829-12.641,2.745-18.961c-0.027-0.231-0.056-0.462-0.084-0.694
		c0.132-0.015,0.264-0.029,0.396-0.044l0.345-0.353c0.086-0.578,0.182-0.584,0.29-0.005c3.575,6.535,7.315,12.986,10.685,19.628
		c4.085,8.052,7.363,16.453,10.29,25.61c-8.737-1.572-16.955-3.058-25.174-4.528C327.821,132.909,328.146,131.094,328.356,129.499z
		 M321.715,84.925c-0.81,8.019-1.823,16.021-2.952,24c-0.498,3.518-0.311,7.202-2.196,11.095
		c-10.382-15.765-19.791-31.604-29.972-48.453c5.858,0.713,10.178,2.197,14.566,3.325c5.499,1.412,10.98,2.89,16.445,4.424
		C321.934,80.531,322.151,80.612,321.715,84.925z M279.1,37.69c14.751,6.959,27.393,16.074,38.03,27.999
		c-11.626-2.964-23.117-5.779-34.655-8.394c-1.605-0.364-2.778-0.924-2.712-2.778C279.958,49.082,278.505,43.7,279.1,37.69z
		 M274.972,77.365c10.948,17.52,21.686,34.7,32.912,52.662c-7.366,0.359-13.312-1.031-19.34-1.336
		c-9.146-0.462-18.27-1.404-27.401-2.157c-4.72-0.389-4.94-0.594-3.383-4.779c5.24-14.078,10.565-28.125,15.881-42.174
		C273.88,78.949,274.341,78.4,274.972,77.365z M263.666,30.954c1.487,0.514,2.629,1.223,2.619,3.035
		c-0.022,4.874-0.007,9.747-0.007,15.392c-13.883-9.422-27.259-18.498-40.635-27.575C238.89,23.357,251.39,26.725,263.666,30.954z
		 M205.972,25.702c1.178-0.886,1.935-0.238,2.658,0.216c14.074,8.819,27.56,18.515,41.32,27.799
		c0.717,0.482,1.185,1.338,1.768,2.021c0.002,0,0.003,0.001,0.006,0.001c-0.002,0.001-0.003,0.001-0.004,0.003
		c0.001,0,0.002,0.002,0.004,0.004c-1.281,1.098-2.771,1.481-4.376,1.56c-0.229,0.011-0.461,0.017-0.694,0.017
		c-12.408-0.008-24.817,0.011-37.226,0.019c-1.282,0.001-2.582,0.036-3.456-1.174C205.972,45.954,205.972,35.74,205.972,25.702z
		 M199.597,76.26c2.249,3.253,4.422,6.363,6.565,9.495c8.282,12.109,16.56,24.225,24.829,36.345
		c0.709,1.041,1.672,2.003,1.403,3.452c-1.188,1.635-2.954,1.183-4.54,1.186c-19.026,0.024-38.051,0.024-57.076-0.007
		c-1.562-0.002-3.387,0.521-4.354-1.419c10.529-15.901,21.057-31.805,31.604-47.693C198.301,77.206,198.796,76.941,199.597,76.26z
		 M193.624,24.415C193.624,24.415,193.624,24.415,193.624,24.415c0.429,0.221,0.72,0.507,0.915,0.838
		c0.182,0.308,0.279,0.656,0.332,1.024c0.023,0.159,0.04,0.322,0.049,0.489c0.007,0.138,0.009,0.277,0.009,0.417
		c0.002,8.721,0.002,17.441,0.002,26.161c0,1.102-0.175,2.132-1.152,2.824c-0.835,1.189-2.11,1.171-3.373,1.171
		c-13.733-0.006-27.468-0.009-41.201-0.029c-0.503-0.001-1.013-0.178-1.505-0.323c-0.089-0.026-0.165-0.304-0.144-0.452
		c0.023-0.17,0.161-0.322,0.25-0.483c-0.04-0.757,0.12-1.411,0.789-1.892c14.351-10.291,29.01-20.121,43.973-29.497
		C192.858,24.481,193.27,24.492,193.624,24.415z M132.768,32.349c-0.004-0.073,0.229-0.157,0.352-0.234
		c9.49-3.935,19.392-6.524,29.352-8.914c3.182-0.764,6.378-1.488,9.595-2.099c1.373-0.262,1.427,0.516,0.766,1.49
		c-0.026,0.152-0.063,0.292-0.11,0.419c-0.025,0.07-0.059,0.129-0.09,0.191c-0.024,0.053-0.045,0.108-0.073,0.156
		c-0.045,0.076-0.101,0.141-0.154,0.205c-0.021,0.023-0.036,0.053-0.058,0.076c-0.064,0.066-0.134,0.123-0.207,0.179
		c-0.019,0.013-0.032,0.03-0.052,0.042c-0.081,0.057-0.17,0.103-0.261,0.145c-0.013,0.007-0.025,0.015-0.038,0.021
		c-0.101,0.044-0.207,0.079-0.317,0.108c-0.007,0.002-0.013,0.004-0.02,0.006c-0.115,0.029-0.237,0.053-0.363,0.069
		c-0.002,0-0.005,0-0.009,0.001c-0.128,0.016-0.263,0.026-0.401,0.029c-0.242,0.466-0.599,0.769-1.051,0.93
		c-0.152,0.054-0.313,0.094-0.485,0.119c-1.235,0.179-2.113,0.926-2.9,1.818c-0.032,0.147-0.074,0.281-0.123,0.403
		c-0.002,0.002-0.002,0.003-0.004,0.006c-0.048,0.118-0.104,0.227-0.169,0.322c-0.042,0.065-0.093,0.117-0.141,0.172
		c-0.027,0.031-0.05,0.066-0.077,0.094c-0.063,0.061-0.132,0.111-0.2,0.159c-0.021,0.015-0.04,0.034-0.062,0.048
		c-0.076,0.048-0.158,0.088-0.243,0.126c-0.02,0.008-0.036,0.021-0.056,0.027c-0.091,0.037-0.186,0.066-0.285,0.092
		c-0.017,0.004-0.031,0.01-0.048,0.015c-0.1,0.024-0.205,0.041-0.312,0.056c-0.018,0.003-0.034,0.007-0.052,0.009
		c-0.111,0.014-0.228,0.021-0.345,0.025c-0.015,0-0.028,0.002-0.043,0.004c-0.003,0.004-0.007,0.006-0.009,0.012
		c-0.257,0.468-0.628,0.762-1.091,0.919c-0.155,0.054-0.321,0.092-0.496,0.115c-8.52,4.661-16.029,10.848-24.214,16.016
		c-1.666,1.052-3.064,2.603-5.522,3.033c-0.695-5.289,0-10.476,0.186-15.656C132.874,32.853,132.78,32.602,132.768,32.349z
		 M142.753,125.918c-16.614,1.453-33.135,2.899-50.269,4.396c2.005-5.402,25.296-44.042,31.392-52.388
		C125.378,79.847,141.371,120.313,142.753,125.918z M80.81,64.973c1.809-2.86,3.501-5.925,7.399-6.35
		c0.074-0.328,0.213-0.586,0.42-0.771c0.002-0.003,0.006-0.004,0.008-0.006c0.101-0.09,0.216-0.163,0.348-0.22
		c0.136-0.057,0.288-0.096,0.458-0.117v0.101c0.072-0.797,0.271-1.442,0.566-1.977c0.006-0.013,0.012-0.028,0.019-0.041
		c0.061-0.106,0.13-0.207,0.198-0.306c0.019-0.025,0.033-0.054,0.053-0.08c0.064-0.087,0.136-0.168,0.207-0.248
		c0.026-0.031,0.052-0.064,0.079-0.096c0.071-0.073,0.146-0.143,0.222-0.209c0.033-0.031,0.064-0.065,0.098-0.094
		c0.076-0.063,0.155-0.122,0.234-0.181c0.04-0.029,0.075-0.061,0.117-0.088c0.08-0.055,0.165-0.104,0.249-0.155
		c0.043-0.026,0.084-0.055,0.127-0.078c0.088-0.051,0.181-0.095,0.272-0.141c0.044-0.021,0.086-0.045,0.131-0.065
		c0.095-0.045,0.195-0.085,0.293-0.125c0.044-0.018,0.086-0.037,0.13-0.054c0.105-0.04,0.213-0.077,0.322-0.113
		c0.039-0.015,0.079-0.029,0.121-0.043c0.115-0.036,0.23-0.069,0.348-0.104c0.038-0.01,0.074-0.022,0.112-0.032
		c0.127-0.034,0.259-0.067,0.391-0.1c0.027-0.006,0.053-0.013,0.08-0.02c0.146-0.034,0.297-0.067,0.447-0.1
		c0.01-0.002,0.021-0.004,0.031-0.006c0.163-0.033,0.325-0.064,0.489-0.096c0.176-0.604,0.568-0.97,1.188-1.085h0.001
		c0.229-0.696,0.526-1.295,0.906-1.786c0,0,0,0,0.001-0.001c0.074-0.097,0.152-0.19,0.234-0.279
		c0.003-0.002,0.005-0.005,0.008-0.008c0.08-0.086,0.161-0.167,0.247-0.245c0.006-0.006,0.014-0.011,0.021-0.018
		c0.082-0.073,0.166-0.143,0.254-0.209c0.011-0.01,0.024-0.017,0.036-0.025c0.083-0.062,0.169-0.12,0.259-0.174
		c0.018-0.011,0.038-0.021,0.056-0.03c0.085-0.05,0.17-0.098,0.26-0.142c0.025-0.012,0.052-0.021,0.077-0.032
		c0.084-0.039,0.171-0.076,0.26-0.109c0.034-0.013,0.071-0.022,0.106-0.034c0.084-0.029,0.165-0.056,0.253-0.079
		c0.046-0.013,0.097-0.021,0.144-0.032c0.078-0.018,0.156-0.038,0.239-0.052c0.059-0.01,0.123-0.017,0.184-0.024
		c0.073-0.01,0.145-0.021,0.22-0.027c0.084-0.009,0.172-0.011,0.258-0.014c0.057-0.003,0.112-0.008,0.171-0.009
		c0.147-0.001,0.299,0.002,0.454,0.012c6.259-3.292,11.82-7.856,18.859-10.466c0,5.788,0.06,11.32-0.032,16.849
		c-0.031,1.893-1.666,2.049-3.134,2.399c-10.461,2.512-20.911,5.074-31.36,7.638c-1.062,0.261-2.093,0.638-3.14,0.96
		c0,0,0,0,0,0.001c-0.402-0.14-0.896-0.457-1.017-0.767C80.75,65.168,80.751,65.066,80.81,64.973z M76.113,81.603
		c0.041-0.33,0.076-0.659,0.097-0.984c0.103-1.651,1.698-2.17,3.174-2.532c10.012-2.466,20.016-4.965,30.033-7.404
		c1.098-0.268,2.188-0.031,2.786,1.148c-9.345,15.196-18.691,30.392-28.032,45.589c-0.596,0.97-1.25,1.811-2.574,1.567
		c0,0,0,0,0,0.001c-1.815-3.233-2.338-6.69-2.309-10.242c0.002-0.273,0.008-0.548,0.017-0.822c0.017-0.549,0.046-1.099,0.083-1.652
		c0.619-0.423,0.458-0.929,0.157-1.451c-0.001,0-0.001,0-0.002-0.001v0.001c-1.673-2.681-1.939-5.69-2.217-8.687
		c-0.064-0.692-0.129-1.382-0.213-2.067c-0.214-1.775,0.011-3.604,0.036-5.409l0.194-0.347c-0.302-0.282-0.548-0.572-0.749-0.872
		C75.396,85.65,75.865,83.587,76.113,81.603z M78.104,156.05c1.35-0.199,1.521,0.647,1.766,1.214
		c6.583,15.276,13.135,30.565,19.701,45.848c0.437,1.013,0.912,2.001,0.64,3.149c-0.847,0.834-1.919,0.927-3.022,0.924
		c-6.706-0.008-13.411-0.017-20.118-0.021c-1.29,0-2.548-0.073-3.435-1.213c-5.569-1.207-11.291-0.424-17.529-1.23
		C63.621,188.275,70.288,171.802,78.104,156.05z M64.44,93.331c0.382,0.057,0.763,0.113,1.146,0.17
		c1.693,12.065,3.347,24.136,5.118,36.189c0.331,2.252-0.117,3.331-2.565,3.726c-7.919,1.277-15.804,2.769-24.606,4.336
		C48.6,121.646,56.173,107.328,64.44,93.331z M28.99,139.999c0.104,5.442-2.306,10.052-4.617,14.701
		C25.008,149.521,26.821,144.693,28.99,139.999z M37.486,219.71c-0.383,2.707-0.838,5.404-1.257,8.106
		c-1.271,8.233-2.538,16.469-3.807,24.703c-6.663-11.302-10.363-23.408-13.535-36.029c5.777-0.777,11.344,0.167,16.918,0.449
		C37.617,217.032,37.675,218.376,37.486,219.71z M21.689,203.572c-1.9-0.037-1.657-1.36-1.313-2.769
		c1.693-6.922,4.51-13.461,6.809-20.175c1.169-3.409,2.56-6.743,3.85-10.11c0.398,0.054,0.797,0.108,1.195,0.163
		c1.79,10.908,3.579,21.816,5.402,32.927C32.105,203.608,26.896,203.676,21.689,203.572z M44.308,150.809
		c5.217-0.872,10.385-2.081,15.618-2.811c2.499-0.349,4.927-1.448,8.078-0.991c-6.503,14.651-12.902,29.072-19.303,43.492
		c-0.294,0.006-0.589,0.012-0.882,0.018c-0.788-4.609-1.81-9.194-2.312-13.835c-0.838-7.762-1.748-15.496-3.568-23.102
		C41.48,151.658,42.575,151.099,44.308,150.809z M45.094,268.85c-2.542-0.736-2.093-2.716-1.854-4.489
		c1.198-8.905,2.467-17.801,3.713-26.701c0.229-1.632,0.462-3.265,0.694-4.898c0.367-0.128,0.734-0.257,1.102-0.384
		c6.291,13.765,12.58,27.528,19.182,41.973C59.812,272.79,52.421,270.972,45.094,268.85z M70.782,295.36
		c-0.659,5.961-1.187,11.938-1.896,19.171c-9.409-9.661-15.307-20.36-22.178-31.37c6.847,0.407,12.368,2.43,18.028,3.68
		C71.624,288.362,71.542,288.493,70.782,295.36z M55.934,218.196c15.042-0.417,29.324,0.999,44.454,1.323
		c-7.258,16.014-14.291,31.53-21.794,48.084C70.84,250.694,63.548,234.796,55.934,218.196z M83.31,327.526
		c-1.701-0.95-3.125-1.895-2.738-4.18c1.213-7.156,0.874-14.5,2.615-22.753c9.007,12.818,17.477,24.874,25.933,36.911
		c-1.575,1.416-2.67,0.387-3.762-0.063C97.898,334.383,90.376,331.469,83.31,327.526z M119.701,360.471
		c-0.232,1.98,0.387,4.015-0.586,6.854c-11.801-5.92-22.017-13.023-30.065-23.235c9.355,4.028,18.716,8.04,28.059,12.097
		C118.923,356.976,119.954,358.302,119.701,360.471z M125.441,339.363c-11.22-16.098-21.834-31.328-33.068-47.448
		c7.902,0.948,14.59,1.732,21.273,2.557c8.54,1.052,17.077,2.132,25.616,3.2c3.439,0.432,3.7,0.753,2.26,4.213
		c-3.928,9.425-7.951,18.81-11.958,28.2C128.427,332.75,127.213,335.384,125.441,339.363z M135.095,375.447
		c-1.606-0.418-2.771-1.593-2.618-3.622c0.136-1.808,0.029-3.633,0.029-6.467c8.239,5.646,15.854,10.864,24.219,16.595
		C148.689,380.452,142.095,377.267,135.095,375.447z M194.892,383.37c-0.005,0.959-0.438,1.723-1.291,2.214
		c-3.568,0.088-6.854-1.182-9.963-2.603c-11.753-5.371-22.646-12.183-32.676-20.351c0,0,0,0-0.001,0
		c0.761-1.047,1.751-1.382,2.763-1.41c0.449-0.011,0.904,0.037,1.344,0.11c0.33,0.055,0.652,0.123,0.958,0.191
		c7.146,1.586,14.455,1.903,21.668,2.918c4.487,0.632,9.084,0.745,13.611,1.373c0.188,0.024,0.364,0.056,0.531,0.093
		c1.17,0.26,1.857,0.838,1.927,2.189c0.488,0.348,0.814,0.782,0.989,1.29c0.003,0.009,0.005,0.017,0.007,0.024
		c0.031,0.093,0.06,0.189,0.08,0.287c0.009,0.038,0.013,0.076,0.02,0.114c0.012,0.072,0.026,0.142,0.034,0.215
		c0.012,0.113,0.017,0.229,0.018,0.347C194.918,374.704,194.914,379.037,194.892,383.37z M195.256,344.07
		c-8.549-12.79-16.86-25.739-25.198-38.669c-1.153-1.788-2.89-3.368-2.624-5.818c-0.001,0-0.001,0-0.001,0s0,0,0.001,0
		c1.001-1.024,2.223-1.047,3.444-0.997c0.406,0.017,0.814,0.042,1.214,0.042c18.421-0.023,36.843-0.031,55.266,0.012
		c1.724,0.003,3.729-0.666,4.973,1.313c-10.656,16.43-21.311,32.86-32.047,49.414C197.584,348.156,196.46,345.871,195.256,344.07z
		 M205.915,385.62C205.915,385.62,205.915,385.62,205.915,385.62c-0.893-0.828-1.091-1.805-1.102-2.813
		c-0.003-0.337,0.015-0.678,0.033-1.016c0.026-0.453,0.057-0.905,0.045-1.345c-0.079-3.286-0.097-6.579,0.003-9.863
		c0.12-3.96,0.432-4.343,4.368-4.744c10.104-1.03,20.103-3.002,30.281-3.376c1.247-0.046,2.468-0.587,3.718-0.801
		c1.604-0.271,3.277-0.711,4.528,0.895c0.558,0.674-0.023,0.947-0.453,1.255c-8.171,5.839-16.404,11.605-25.309,16.269
		C216.982,382.724,211.78,385.22,205.915,385.62z M261.416,375.943c-5.309,2.273-11.077,3.335-16.178,6.16
		c-0.171,0.094-0.608-0.293-1.643-0.83c7.722-5.318,14.879-10.251,21.848-15.052c1.364,0.424,1.05,1.3,1.063,1.922
		C266.62,373.774,266.584,373.729,261.416,375.943z M273.686,339.516c-5.616-13.169-10.905-25.451-16.074-37.781
		c-1.339-3.196-1.11-3.513,2.137-3.922c9.64-1.215,19.294-2.314,28.94-3.483c5.623-0.682,11.243-1.404,17.902-2.238
		C295.497,308.08,284.881,323.38,273.686,339.516z M279.229,368.075c0-3.26-0.005-5.875,0.002-8.49
		c0.003-1.701,1.025-2.635,2.471-3.257c9.694-4.168,19.385-8.341,29.077-12.513C302.019,353.938,291.637,361.774,279.229,368.075z
		 M319.346,325.29c-0.012,1.335-1.039,1.792-2.208,1.963c-8.863,4.251-17.758,8.429-27.355,11.59
		c8.58-12.872,17.103-25.767,26.441-38.107h-0.001c0.27-0.184,0.451-0.26,0.574-0.263c0.279-0.01,0.262,0.345,0.268,0.67
		c0.002,0.107,0.007,0.212,0.026,0.299l-0.084,0.387c1.327,1.021,1.597,2.354,1.661,3.738c0.01,0.196,0.015,0.396,0.018,0.594
		c0.004,0.16,0.006,0.319,0.007,0.479c0.006,0.477,0.013,0.953,0.057,1.418c0.028,0.309,0.074,0.612,0.145,0.908
		C320.178,314.299,319.393,319.836,319.346,325.29z M320.693,267.404c-7.541-16.335-14.627-31.685-21.713-47.035
		c-0.189-0.144-0.515-0.35-0.653-0.472c-0.047-0.039-0.072-0.07-0.065-0.086c0.268-0.593,0.846-0.421,1.344-0.438l0.093-0.037
		c-0.001,0-0.001,0-0.001,0c0.498-0.721,1.197-1.004,2.002-1.104c0.114-0.013,0.231-0.022,0.351-0.031
		c7.8-0.479,15.563-1.422,23.416-1.188c4.697,0.141,9.47,0.685,14.125-0.829c1.465-0.477,2.997,0,3.682,1.584
		c0.614,1.425,0.71,2.875-1.086,3.671c-5.534,11.923-11.06,23.849-16.605,35.764C324.145,260.288,322.642,263.343,320.693,267.404z
		 M330.274,314.152c-0.926-8.362-1.765-15.951-2.604-23.542c-0.189-1.721,1.062-2.178,2.319-2.502
		c7.209-1.859,14.429-3.681,21.774-5.549C350.356,288.272,337.153,307.841,330.274,314.152z M386.886,432.854
		c0.012,0.383-0.012,0.772,0.015,1.15C386.873,433.627,386.897,433.237,386.886,432.854z"/>
</g>
</svg>
